<svg width="24" height="25" viewBox="0 0 24 25" fill="none" xmlns="http://www.w3.org/2000/svg">
<path d="M21.1209 16.5208C20.3072 15.1211 19.875 13.112 19.875 10.7148C19.875 8.62626 19.0453 6.62323 17.5685 5.14638C16.0916 3.66953 14.0886 2.83984 12 2.83984C9.91142 2.83984 7.90838 3.66953 6.43153 5.14638C4.95468 6.62323 4.125 8.62626 4.125 10.7148C4.125 13.113 3.69468 15.1211 2.88093 16.5208C2.71488 16.8063 2.62687 17.1304 2.62571 17.4607C2.62456 17.7909 2.71032 18.1157 2.87437 18.4023C3.03739 18.6891 3.27399 18.9272 3.55977 19.092C3.84554 19.2568 4.17012 19.3424 4.5 19.3398H7.89187C7.9849 20.3651 8.45794 21.3186 9.21808 22.0129C9.97822 22.7071 10.9705 23.0921 12 23.0921C13.0295 23.0921 14.0218 22.7071 14.7819 22.0129C15.542 21.3186 16.0151 20.3651 16.1081 19.3398H19.5C19.8294 19.3419 20.1534 19.2561 20.4386 19.0913C20.7239 18.9265 20.96 18.6887 21.1228 18.4023C21.2876 18.1161 21.3741 17.7916 21.3738 17.4613C21.3735 17.131 21.2863 16.8067 21.1209 16.5208ZM12 20.8398C11.5678 20.8399 11.1488 20.6907 10.8139 20.4173C10.4791 20.144 10.2489 19.7634 10.1625 19.3398H13.8375C13.751 19.7634 13.5209 20.144 13.1861 20.4173C12.8512 20.6907 12.4322 20.8399 12 20.8398ZM5.12437 17.0898C5.95406 15.4023 6.375 13.2592 6.375 10.7148C6.375 9.223 6.96763 7.79226 8.02252 6.73737C9.07741 5.68248 10.5082 5.08984 12 5.08984C13.4918 5.08984 14.9226 5.68248 15.9775 6.73737C17.0324 7.79226 17.625 9.223 17.625 10.7148C17.625 13.2583 18.045 15.4023 18.8747 17.0898H5.12437Z" fill="#A0A0A0"/>
</svg>
