<svg width="40" height="40" viewBox="0 0 40 40" fill="none" xmlns="http://www.w3.org/2000/svg">
<path d="M20 0C18.4529 0 16.9692 1.05357 15.8752 2.92893C14.7812 4.8043 14.1667 7.34784 14.1667 10C14.1667 12.6522 14.7812 15.1957 15.8752 17.0711C16.9692 18.9464 18.4529 20 20 20C21.5471 20 23.0308 18.9464 24.1248 17.0711C25.2188 15.1957 25.8333 12.6522 25.8333 10C25.8333 7.34784 25.2188 4.8043 24.1248 2.92893C23.0308 1.05357 21.5471 0 20 0ZM20 5.71429C20.663 5.71429 21.2989 6.16581 21.7678 6.96954C22.2366 7.77327 22.5 8.86336 22.5 10C22.5 11.1366 22.2366 12.2267 21.7678 13.0305C21.2989 13.8342 20.663 14.2857 20 14.2857C19.337 14.2857 18.7011 13.8342 18.2322 13.0305C17.7634 12.2267 17.5 11.1366 17.5 10C17.5 8.86336 17.7634 7.77327 18.2322 6.96954C18.7011 6.16581 19.337 5.71429 20 5.71429ZM9.16667 8.57143C8.0616 8.57143 7.00179 9.32398 6.22039 10.6635C5.43899 12.0031 5 13.8199 5 15.7143C5 18.4 5.88333 20.7143 7.15 21.9429C7.75 22.5143 8.43333 22.8571 9.16667 22.8571C9.9 22.8571 10.5833 22.5143 11.1833 21.9429C11.8 21.3429 12.3167 20.4857 12.7 19.4571C11.4858 16.7445 10.8295 13.4192 10.8333 10V9.2C10.3333 8.8 9.76667 8.57143 9.16667 8.57143ZM30.8333 8.57143C30.2333 8.57143 29.6667 8.8 29.1667 9.2V10C29.1667 13.4286 28.5167 16.7429 27.3 19.4571C27.5 20 27.7167 20.4286 27.9667 20.8571C28.7351 22.1351 29.7627 22.8521 30.8333 22.8571C31.5667 22.8571 32.25 22.5143 32.85 21.9429C34.1167 20.7143 35 18.4 35 15.7143C35 13.8199 34.561 12.0031 33.7796 10.6635C32.9982 9.32398 31.9384 8.57143 30.8333 8.57143ZM20 25.7143C16.1 25.7143 8.33333 29.0571 8.33333 35.7143V40H31.6667V35.7143C31.6667 29.0571 23.9 25.7143 20 25.7143ZM7.85 27.2857C4.63333 27.9429 0 30.7429 0 35.7143V40H5V34.4857C5 31.6 6.15 29.2 7.85 27.2857ZM32.15 27.2857C33.85 29.2 35 31.6 35 34.4857V40H40V35.7143C40 30.7429 35.3667 27.9429 32.15 27.2857ZM20 31.4286C22.55 31.4286 25.4 32.8571 27.05 34.2857H12.95C14.6 32.8571 17.45 31.4286 20 31.4286Z" fill="#85B6FF"/>
</svg>
