<svg width="40" height="40" viewBox="0 0 40 40" fill="none" xmlns="http://www.w3.org/2000/svg">
<path d="M7.27273 27.5L6.18182 26.25C2.54545 21.5 0 18.5 0 14.75C0 11.75 1.81818 9.25 4 9.25C5.27273 9.25 6.54545 10 7.27273 11.25C8 10 9.27273 9.25 10.5455 9.25C12.7273 9.25 14.5455 11.5 14.5455 14.75C14.5455 18.5 12 21.5 8.36364 26.25L7.27273 27.5ZM25.4545 0C23.5257 0 21.6759 1.05357 20.312 2.92893C18.948 4.8043 18.1818 7.34784 18.1818 10C18.1818 12.6522 18.948 15.1957 20.312 17.0711C21.6759 18.9464 23.5257 20 25.4545 20C27.3834 20 29.2332 18.9464 30.5971 17.0711C31.961 15.1957 32.7273 12.6522 32.7273 10C32.7273 7.34784 31.961 4.8043 30.5971 2.92893C29.2332 1.05357 27.3834 0 25.4545 0ZM25.4545 15.25C24.4419 15.25 23.4707 14.6969 22.7547 13.7123C22.0386 12.7277 21.6364 11.3924 21.6364 10C21.6364 8.60761 22.0386 7.27226 22.7547 6.28769C23.4707 5.30312 24.4419 4.75 25.4545 4.75C25.956 4.75 26.4525 4.8858 26.9157 5.14963C27.3789 5.41347 27.7999 5.80018 28.1544 6.28769C28.509 6.7752 28.7902 7.35395 28.9821 7.99091C29.174 8.62787 29.2727 9.31056 29.2727 10C29.2727 10.6894 29.174 11.3721 28.9821 12.0091C28.7902 12.646 28.509 13.2248 28.1544 13.7123C27.7999 14.1998 27.3789 14.5865 26.9157 14.8504C26.4525 15.1142 25.956 15.25 25.4545 15.25ZM25.4545 22.5C20.6 22.5 10.9091 25.825 10.9091 32.5V40H40V32.5C40 25.825 30.3091 22.5 25.4545 22.5ZM36.5455 35.25H14.3636V32.5C14.3636 30.9 20 27.25 25.4545 27.25C30.8545 27.25 36.5455 30.9 36.5455 32.5V35.25Z" fill="#85B6FF"/>
</svg>
