<svg width="24" height="25" viewBox="0 0 24 25" fill="none" xmlns="http://www.w3.org/2000/svg">
<path d="M12 21.9653C13.2031 21.9654 14.3941 21.7242 15.5024 21.2561C16.6108 20.7879 17.614 20.1023 18.4528 19.2397C19.2916 18.3772 19.9489 17.3552 20.3859 16.2342C20.8229 15.1132 21.0307 13.916 20.997 12.7133C19.7383 13.5894 18.2268 14.0279 16.6947 13.9614C15.1626 13.895 13.6947 13.3272 12.5166 12.3454C11.3386 11.3636 10.5155 10.0222 10.1739 8.52713C9.83235 7.03211 9.99118 5.46629 10.626 4.07031C8.38422 4.41578 6.35556 5.59498 4.94589 7.37198C3.53622 9.14898 2.84952 11.3927 3.02316 13.6543C3.19681 15.9159 4.218 18.0285 5.88243 19.5695C7.54686 21.1105 9.73176 21.9661 12 21.9653Z" stroke="#A0A0A0" stroke-width="1.5" stroke-linecap="round" stroke-linejoin="round"/>
</svg>
