<svg width="56" height="56" viewBox="0 0 56 56" fill="none" xmlns="http://www.w3.org/2000/svg">
<g filter="url(#filter0_d_353_857)">
<circle cx="28" cy="24" r="24" fill="#99BD62"/>
<path d="M32.32 24.0005C31.7607 23.5317 31.0496 23.2828 30.32 23.3005H25.63C25.4162 23.3059 25.2034 23.2681 25.0046 23.1894C24.8057 23.1107 24.6247 22.9926 24.4725 22.8423C24.3203 22.692 24.2001 22.5125 24.1189 22.3146C24.0377 22.1167 23.9972 21.9044 24 21.6905C23.9948 21.6073 23.9948 21.5238 24 21.4405C24.0631 21.0584 24.2635 20.7123 24.5636 20.4674C24.8637 20.2225 25.2429 20.0956 25.63 20.1105H30.25C30.6269 20.1102 30.9916 20.2438 31.2791 20.4873C31.5667 20.7309 31.7584 21.0688 31.82 21.4405H33.32C33.2572 20.6695 32.9065 19.9503 32.3377 19.4259C31.7689 18.9016 31.0236 18.6105 30.25 18.6105H28.67V16.3105H27.42V18.6105H25.63C24.8564 18.6105 24.1111 18.9016 23.5423 19.4259C22.9735 19.9503 22.6228 20.6695 22.56 21.4405C22.555 21.5238 22.555 21.6073 22.56 21.6905C22.56 22.0937 22.6394 22.4929 22.7937 22.8654C22.948 23.2379 23.1741 23.5763 23.4592 23.8614C24.0349 24.4371 24.8158 24.7605 25.63 24.7605H30.37C30.5821 24.7552 30.7932 24.7924 30.9908 24.8699C31.1883 24.9474 31.3683 25.0637 31.5202 25.2119C31.6722 25.36 31.7929 25.5371 31.8753 25.7327C31.9577 25.9283 32.0001 26.1383 32 26.3505C32.0104 26.4636 32.0104 26.5775 32 26.6905C31.9206 27.0424 31.7239 27.3568 31.4423 27.5821C31.1606 27.8075 30.8107 27.9303 30.45 27.9305H25.75C25.3893 27.9303 25.0394 27.8075 24.7577 27.5821C24.4761 27.3568 24.2794 27.0424 24.2 26.6905H22.69C22.7759 27.4419 23.1353 28.1354 23.6996 28.6388C24.2639 29.1423 24.9937 29.4205 25.75 29.4205H27.42V31.6905H28.67V29.4205H30.37C31.1263 29.4205 31.8561 29.1423 32.4204 28.6388C32.9847 28.1354 33.3441 27.4419 33.43 26.6905V26.3505C33.4288 25.9014 33.3287 25.458 33.1369 25.0518C32.9451 24.6457 32.6662 24.2868 32.32 24.0005Z" fill="#F0F9FF"/>
</g>
<defs>
<filter id="filter0_d_353_857" x="0" y="0" width="56" height="56" filterUnits="userSpaceOnUse" color-interpolation-filters="sRGB">
<feFlood flood-opacity="0" result="BackgroundImageFix"/>
<feColorMatrix in="SourceAlpha" type="matrix" values="0 0 0 0 0 0 0 0 0 0 0 0 0 0 0 0 0 0 127 0" result="hardAlpha"/>
<feOffset dy="4"/>
<feGaussianBlur stdDeviation="2"/>
<feComposite in2="hardAlpha" operator="out"/>
<feColorMatrix type="matrix" values="0 0 0 0 0 0 0 0 0 0 0 0 0 0 0 0 0 0 0.25 0"/>
<feBlend mode="normal" in2="BackgroundImageFix" result="effect1_dropShadow_353_857"/>
<feBlend mode="normal" in="SourceGraphic" in2="effect1_dropShadow_353_857" result="shape"/>
</filter>
</defs>
</svg>
