<svg width="20" height="20" viewBox="0 0 20 20" fill="none" xmlns="http://www.w3.org/2000/svg">
<path d="M8.6325 0.829594C9.02033 0.518904 9.50244 0.349609 9.99937 0.349609C10.4963 0.349609 10.9784 0.518904 11.3663 0.829594L17.9288 6.07959C18.4475 6.49459 18.75 7.12334 18.75 7.78834V16.5621C18.75 17.1423 18.5195 17.6987 18.1093 18.1089C17.6991 18.5191 17.1427 18.7496 16.5625 18.7496H12.1875C11.9389 18.7496 11.7004 18.6508 11.5246 18.475C11.3488 18.2992 11.25 18.0607 11.25 17.8121V11.2496H8.75V17.8121C8.75 18.0607 8.65123 18.2992 8.47541 18.475C8.2996 18.6508 8.06114 18.7496 7.8125 18.7496H3.4375C2.85734 18.7496 2.30094 18.5191 1.8907 18.1089C1.48047 17.6987 1.25 17.1423 1.25 16.5621V7.78709C1.25 7.12334 1.5525 6.49459 2.07125 6.07959L8.6325 0.829594ZM10.195 2.29334C10.1396 2.24912 10.0709 2.22504 10 2.22504C9.92914 2.22504 9.86038 2.24912 9.805 2.29334L3.2425 7.54334C3.20574 7.5727 3.17607 7.60998 3.15573 7.65241C3.13538 7.69483 3.12488 7.7413 3.125 7.78834V16.5621C3.125 16.7346 3.265 16.8746 3.4375 16.8746H6.875V10.3121C6.875 10.0635 6.97377 9.825 7.14959 9.64918C7.3254 9.47337 7.56386 9.37459 7.8125 9.37459H12.1875C12.4361 9.37459 12.6746 9.47337 12.8504 9.64918C13.0262 9.825 13.125 10.0635 13.125 10.3121V16.8746H16.5625C16.6454 16.8746 16.7249 16.8417 16.7835 16.7831C16.8421 16.7245 16.875 16.645 16.875 16.5621V7.78709C16.8749 7.74026 16.8643 7.69403 16.844 7.65184C16.8237 7.60965 16.7941 7.57257 16.7575 7.54334L10.195 2.29334Z" fill="#747474"/>
</svg>
