<svg width="35" height="28" viewBox="0 0 35 28" fill="none" xmlns="http://www.w3.org/2000/svg">
<path d="M31.0634 20.8751H28.3099C28.1219 20.8751 27.9457 20.9407 27.8282 21.0563C27.554 21.3219 27.2603 21.5782 26.9509 21.8219C25.6854 22.8327 24.1864 23.6381 22.5368 24.1938C20.8278 24.7697 18.9909 25.0652 17.1357 25.0626C15.2596 25.0626 13.4423 24.7688 11.7346 24.1938C10.085 23.6381 8.58606 22.8327 7.32056 21.8219C6.05279 20.8146 5.04191 19.6207 4.34389 18.3063C3.61931 16.9438 3.25506 15.4969 3.25506 14.0001C3.25506 12.5032 3.62323 11.0563 4.34389 9.6938C5.04106 8.37818 6.04372 7.1938 7.32056 6.17818C8.59739 5.16255 10.0818 4.36255 11.7346 3.8063C13.4423 3.2313 15.2596 2.93755 17.1357 2.93755C19.0118 2.93755 20.8291 3.22817 22.5368 3.8063C24.1896 4.36255 25.674 5.16255 26.9509 6.17818C27.2603 6.42505 27.5501 6.6813 27.8282 6.9438C27.9457 7.05943 28.1259 7.12505 28.3099 7.12505H31.0634C31.3101 7.12505 31.4629 6.9063 31.3258 6.74068C28.3217 3.01567 23.0655 0.550047 17.0926 0.562547C7.70831 0.581297 0.184398 6.65943 0.278398 14.1376C0.372398 21.4969 7.88456 27.4376 17.1357 27.4376C23.093 27.4376 28.3256 24.9751 31.3258 21.2594C31.4589 21.0938 31.3101 20.8751 31.0634 20.8751ZM34.5453 13.8032L28.9875 10.3032C28.7799 10.1719 28.4784 10.2907 28.4784 10.5001V12.8751H16.18C16.0077 12.8751 15.8667 12.9876 15.8667 13.1251V14.8751C15.8667 15.0126 16.0077 15.1251 16.18 15.1251H28.4784V17.5001C28.4784 17.7094 28.7839 17.8282 28.9875 17.6969L34.5453 14.1969C34.5827 14.1735 34.613 14.1437 34.6338 14.1096C34.6547 14.0754 34.6655 14.038 34.6655 14.0001C34.6655 13.9621 34.6547 13.9247 34.6338 13.8906C34.613 13.8564 34.5827 13.8266 34.5453 13.8032Z" fill="#41ADE3"/>
</svg>
