
<svg width="80" height="40" viewBox="0 0 80 40" fill="none" xmlns="http://www.w3.org/2000/svg">
<g clip-path="url(#clip0_381_3292)">
<g clip-path="url(#clip1_381_3292)">
<path d="M0.152039 37.6743V0.0728149H79.8479V37.6743H59.3796V36.4086H79.1151V1.33851H0.884872V36.4086H20.6204V37.6743H0.152039Z" fill="#65A2C2"/>
<path d="M22.9942 37.2511L23.0928 38.1113C23.2117 38.2529 23.3788 38.3237 23.5938 38.3237C23.7393 38.3237 23.8485 38.2511 23.9216 38.1061C23.9943 37.9608 24.0304 37.7876 24.0304 37.5858C24.0304 37.4797 24.0253 37.3902 24.0151 37.3171C24.0049 37.2448 23.983 37.1626 23.9493 37.0705C23.9153 36.9784 23.8613 36.8863 23.7876 36.7946C23.7138 36.7024 23.6174 36.6052 23.4986 36.5025C23.3592 36.3821 23.2464 36.2687 23.1603 36.1626C23.0743 36.0566 23.0097 35.9469 22.9666 35.8331C22.9234 35.7197 22.8947 35.6118 22.8805 35.5094C22.866 35.4067 22.859 35.2793 22.859 35.127C22.859 34.8155 22.9315 34.5736 23.076 34.4015C23.2202 34.2302 23.3909 34.1447 23.5876 34.1447C23.8315 34.1447 24.0672 34.2507 24.2947 34.4632V35.4826C24.2251 35.5039 24.1666 35.5039 24.1197 35.4826L24.0213 34.5641C23.8902 34.4401 23.7436 34.3784 23.5815 34.3784C23.4729 34.3784 23.3811 34.4342 23.3067 34.5461C23.2317 34.6573 23.1941 34.8136 23.1941 35.0155C23.1941 35.1289 23.1982 35.2173 23.2064 35.2812C23.2147 35.345 23.2351 35.4199 23.2678 35.5061C23.3006 35.5931 23.355 35.6801 23.4308 35.7663C23.5067 35.8533 23.608 35.9502 23.7353 36.0562C24.1738 36.4243 24.3933 36.8632 24.3933 37.3733C24.3933 37.7344 24.3134 38.0265 24.1534 38.2496C23.9937 38.4727 23.7846 38.5843 23.5262 38.5839C23.27 38.5839 23.0343 38.4793 22.8191 38.2705V37.2511C22.8888 37.2298 22.947 37.2298 22.9942 37.2511ZM24.9128 37.5538V35.0313C24.9128 34.7975 24.9099 34.6243 24.9037 34.5109L24.6606 34.458C24.6523 34.4048 24.6523 34.3377 24.6606 34.2562C24.7979 34.2386 24.9732 34.2012 25.1865 34.1447C25.205 34.1799 25.2152 34.2155 25.2173 34.2507C25.2071 34.3428 25.202 34.6294 25.2018 35.1113V36.1146C25.3535 35.7535 25.5358 35.5729 25.7492 35.5729C25.8762 35.5729 25.9848 35.628 26.0751 35.7377C26.1652 35.8474 26.2104 36.0349 26.2102 36.3006V38.207L26.4595 38.2867C26.4677 38.3432 26.4677 38.414 26.4595 38.4991C26.3303 38.4885 26.1992 38.4834 26.0657 38.483C25.9714 38.483 25.8382 38.4867 25.6661 38.4936C25.6537 38.4265 25.6537 38.3575 25.6661 38.2867L25.9089 38.2283C25.9172 38.0335 25.9213 37.8089 25.9213 37.5538V36.5659C25.9213 36.3182 25.9032 36.1395 25.8673 36.0298C25.8316 35.9201 25.7666 35.865 25.6722 35.865C25.5943 35.865 25.5129 35.9146 25.4281 36.014C25.3429 36.1131 25.2675 36.2566 25.2018 36.4441V38.207L25.4508 38.2867C25.4591 38.3432 25.4591 38.414 25.4508 38.4991C25.3216 38.4885 25.1905 38.4834 25.0573 38.483C24.963 38.483 24.8298 38.4867 24.6577 38.4936C24.6453 38.4265 24.6453 38.3575 24.6577 38.2867L24.9005 38.2283C24.9088 38.0335 24.9128 37.8089 24.9128 37.5538ZM26.6407 37.0654C26.6407 36.8529 26.6588 36.6536 26.6949 36.4672C26.7306 36.2819 26.7822 36.1201 26.8498 35.9821C26.9173 35.8441 26.9989 35.7351 27.0946 35.6547C27.1897 35.5755 27.2966 35.5358 27.4156 35.5358C27.5325 35.5358 27.6391 35.5755 27.7354 35.6547C27.8316 35.7347 27.9143 35.8437 27.9831 35.9821C28.0516 36.1201 28.1042 36.2819 28.1412 36.4672C28.1782 36.6533 28.1965 36.8529 28.1965 37.0654C28.1965 37.2848 28.1776 37.4867 28.1399 37.6705C28.1019 37.8547 28.0486 38.0147 27.9802 38.1505C27.9113 38.287 27.8287 38.3935 27.7322 38.4694C27.6359 38.5458 27.5303 38.5843 27.4156 38.5839C27.2947 38.5839 27.1863 38.5469 27.0909 38.4724C26.9958 38.3979 26.915 38.2936 26.8487 38.159C26.782 38.0243 26.7306 37.8639 26.6949 37.6779C26.6588 37.4925 26.6407 37.2881 26.6407 37.0654ZM27.0897 36.0881C27.0015 36.3039 26.9575 36.6298 26.9575 37.0654C26.9575 37.2812 26.9694 37.4709 26.9932 37.6335C27.0166 37.7964 27.0487 37.9314 27.0897 38.039C27.1307 38.1472 27.1789 38.228 27.2342 38.2812C27.2894 38.3344 27.35 38.3608 27.4156 38.3608C27.4791 38.3608 27.5397 38.3344 27.5971 38.2812C27.6544 38.228 27.7037 38.1472 27.7445 38.039C27.7855 37.9314 27.8183 37.796 27.8429 37.6335C27.8675 37.4705 27.8799 37.2812 27.8799 37.0654C27.8799 36.8496 27.8675 36.6591 27.8429 36.494C27.8183 36.3296 27.7851 36.1935 27.7432 36.0848C27.701 35.9773 27.6519 35.8958 27.5958 35.8408C27.5393 35.7861 27.4791 35.759 27.4156 35.759C27.2885 35.759 27.18 35.8687 27.0897 36.0881ZM29.3681 38.2973C29.5034 38.2973 29.6105 38.1839 29.6895 37.9575C29.7682 37.7311 29.8077 37.3894 29.8077 36.9325C29.8077 36.5821 29.7703 36.3149 29.6957 36.1307C29.6207 35.9465 29.5217 35.8547 29.3987 35.8544C29.2183 35.8544 29.0625 36.0048 28.9314 36.3058V37.9575C29.0462 38.1839 29.1917 38.2973 29.3681 38.2973ZM28.6393 38.9821V36.4015C28.6393 36.1645 28.6363 35.9979 28.6301 35.9024L28.3871 35.8492C28.3809 35.7927 28.3809 35.7252 28.3871 35.6474C28.5305 35.6298 28.7068 35.5924 28.9159 35.5358C28.9344 35.5678 28.9446 35.603 28.9467 35.6423C28.9365 35.7663 28.9314 35.8973 28.9314 36.0349C29.0974 35.7021 29.2882 35.5358 29.5032 35.5358C29.6836 35.5358 29.8338 35.665 29.9541 35.9237C30.0737 36.1821 30.1336 36.5237 30.1336 36.9483C30.1336 37.4404 30.0552 37.8357 29.8986 38.1347C29.7416 38.4342 29.5565 38.5839 29.3434 38.5839C29.1938 38.5839 29.0564 38.5006 28.9314 38.3344V39.6353L29.2418 39.7149C29.2501 39.7714 29.2501 39.8423 29.2418 39.9274C29.1127 39.9168 28.9703 39.9116 28.8146 39.9116C28.6998 39.9116 28.5562 39.9153 28.3841 39.9223C28.3718 39.8514 28.3718 39.7825 28.3841 39.7149L28.6269 39.6566C28.6352 39.4617 28.6393 39.2371 28.6393 38.9821ZM30.5885 37.8885C30.6438 37.8885 30.6903 37.9197 30.7281 37.9817C30.7662 38.0434 30.7853 38.1201 30.7853 38.2122C30.7853 38.3043 30.7662 38.3828 30.7281 38.4481C30.6905 38.5138 30.6448 38.5469 30.5917 38.5469C30.5384 38.5469 30.4929 38.5138 30.4551 38.4481C30.4171 38.3832 30.3979 38.3043 30.3979 38.2122C30.3979 38.1201 30.4164 38.0434 30.4534 37.9817C30.4904 37.9193 30.5354 37.8881 30.5885 37.8885ZM31.8368 38.4885C31.8245 38.4247 31.8245 38.3612 31.8368 38.2973L32.092 38.2335C32.1003 38.0988 32.1043 37.8918 32.1043 37.6122V34.4845L31.8553 34.4313C31.847 34.378 31.847 34.3127 31.8553 34.2349C31.8861 34.2386 31.9341 34.2401 31.9998 34.2401C32.1309 34.2401 32.3007 34.2302 32.5089 34.2103C32.7167 34.1913 32.8361 34.1817 32.8669 34.1817C33.2687 34.1817 33.573 34.3692 33.7799 34.7447C33.9869 35.1201 34.0906 35.6243 34.0906 36.258C34.0906 36.9025 33.9933 37.4368 33.7984 37.8617C33.6038 38.2867 33.3312 38.4988 32.9806 38.4991C32.8637 38.4991 32.709 38.4966 32.5163 38.4914C32.3236 38.4859 32.1853 38.483 32.1014 38.483C31.9824 38.483 31.8944 38.4848 31.8368 38.4885ZM32.8637 38.2441C33.4417 38.2441 33.7309 37.5927 33.7309 36.29C33.7309 35.727 33.6556 35.2826 33.5052 34.9571C33.3543 34.6313 33.1374 34.458 32.8546 34.4368C32.8299 34.4331 32.7921 34.4316 32.7409 34.4313C32.6323 34.4313 32.534 34.4456 32.4456 34.4738C32.4373 34.6085 32.4333 34.8224 32.4333 35.1164V38.2283C32.4579 38.2283 32.517 38.2313 32.6105 38.2368C32.7035 38.2419 32.7879 38.2441 32.8637 38.2441ZM34.9022 36.5025V38.207L35.1513 38.2867C35.1534 38.3043 35.1549 38.3204 35.1561 38.3344C35.157 38.3487 35.1574 38.3645 35.1574 38.3821C35.1574 38.3997 35.157 38.418 35.1561 38.4375C35.1549 38.4573 35.1532 38.4779 35.1513 38.4991C35.0221 38.4885 34.8899 38.4834 34.7548 38.483C34.7076 38.483 34.6509 38.4841 34.5844 38.4863C34.5177 38.4878 34.4412 38.4903 34.3549 38.4936C34.3487 38.4617 34.3458 38.4283 34.3458 38.3927C34.3458 38.3608 34.3487 38.3256 34.3549 38.2867L34.598 38.2283C34.602 38.1292 34.6052 38.0236 34.6071 37.9116C34.6092 37.8004 34.6101 37.6812 34.6101 37.5538V36.4228C34.6101 36.1891 34.6071 36.0158 34.6009 35.9024L34.3581 35.8492C34.354 35.8316 34.3519 35.8015 34.3519 35.759C34.3519 35.7414 34.3519 35.7237 34.3519 35.7058C34.3519 35.6881 34.354 35.6687 34.3581 35.6474C34.4975 35.6331 34.6738 35.596 34.8869 35.5358C34.9054 35.5711 34.9156 35.6067 34.9175 35.6423C34.9073 35.7413 34.9022 36.0283 34.9022 36.5025ZM34.4533 34.6067C34.4492 34.5891 34.4471 34.5703 34.4473 34.5502C34.4473 34.5311 34.4473 34.5127 34.4473 34.4951C34.4473 34.3997 34.4705 34.3223 34.5168 34.2635C34.5627 34.2056 34.6194 34.1766 34.687 34.1766C34.7505 34.1766 34.8024 34.2092 34.8425 34.2742C34.8823 34.3399 34.9022 34.4294 34.9022 34.5428C34.9022 34.6349 34.8793 34.7091 34.8334 34.7659C34.7871 34.8224 34.728 34.8511 34.6564 34.8507C34.6071 34.8507 34.5638 34.8294 34.5259 34.7872C34.4879 34.7447 34.4637 34.6845 34.4533 34.6067ZM35.8985 38.3502C36.0092 38.3502 36.0913 38.3058 36.1444 38.2177C36.1977 38.1292 36.2243 38.0265 36.2243 37.9094C36.2243 37.8423 36.2181 37.7802 36.206 37.7237C36.1937 37.6672 36.1739 37.6122 36.1463 37.559C36.1185 37.5058 36.0819 37.4536 36.0369 37.4019C35.9918 37.3509 35.9353 37.2955 35.8677 37.2353C35.7836 37.1608 35.7116 37.09 35.6512 37.0228C35.5905 36.9557 35.5407 36.8848 35.5018 36.8103C35.463 36.7358 35.4339 36.6562 35.4145 36.5714C35.3948 36.4863 35.385 36.3909 35.385 36.2845C35.385 36.1571 35.3984 36.0463 35.4249 35.9524C35.4515 35.8588 35.4891 35.781 35.5375 35.7186C35.5856 35.6569 35.6423 35.6111 35.7077 35.5806C35.7734 35.5509 35.8461 35.5358 35.9262 35.5358C36.0859 35.5358 36.2419 35.603 36.3934 35.7377V36.4173H36.2489L36.1813 35.8437C36.0913 35.7692 35.9959 35.7322 35.8954 35.7325C35.7273 35.7325 35.6431 35.8511 35.6431 36.0881C35.6431 36.2155 35.6708 36.3325 35.7262 36.4386C35.7815 36.5447 35.8707 36.6511 35.9937 36.7571C36.0779 36.8316 36.1516 36.9025 36.2151 36.9696C36.2787 37.0368 36.3316 37.1076 36.3739 37.1821C36.4157 37.2566 36.4474 37.3369 36.469 37.4232C36.4903 37.5102 36.5009 37.6085 36.5011 37.7182C36.5011 37.8423 36.4858 37.9571 36.455 38.0636C36.4242 38.1696 36.3813 38.2606 36.3258 38.3366C36.2706 38.4129 36.2039 38.4735 36.1259 38.5182C36.0479 38.5623 35.9619 38.5839 35.8677 38.5839C35.6852 38.5839 35.5142 38.5168 35.3542 38.3821V37.7024H35.4987L35.5664 38.2283C35.671 38.3098 35.7817 38.3505 35.8985 38.3502ZM38.0998 36.3219C38.0567 36.3997 37.9553 36.4371 37.7955 36.4335C37.7628 35.9872 37.6695 35.7645 37.5157 35.7641C37.3948 35.7641 37.2922 35.8845 37.2083 36.1252C37.1241 36.3659 37.0823 36.6826 37.0823 37.076C37.0823 37.4797 37.1192 37.7905 37.193 38.0085C37.2667 38.2258 37.3774 38.3344 37.5248 38.3344C37.6806 38.3344 37.8334 38.2247 37.9829 38.0052C38.0138 38.0371 38.0373 38.0918 38.0537 38.1696C37.9041 38.4456 37.7165 38.5839 37.4911 38.5839C37.2758 38.5839 37.0995 38.4555 36.9622 38.1986C36.8249 37.9425 36.7561 37.5645 36.7563 37.0654C36.7563 36.5876 36.8328 36.2129 36.9856 35.9417C37.1381 35.6713 37.3128 35.5358 37.5095 35.5358C37.6653 35.5358 37.8028 35.603 37.9215 35.7377C38.0405 35.8724 38.0998 36.0669 38.0998 36.3219ZM38.3244 37.0654C38.3244 36.8529 38.3425 36.6536 38.3784 36.4672C38.4141 36.2819 38.4657 36.1201 38.5335 35.9821C38.601 35.8441 38.6826 35.7351 38.778 35.6547C38.8732 35.5755 38.9801 35.5358 39.0991 35.5358C39.2159 35.5358 39.3226 35.5755 39.4189 35.6547C39.5151 35.7347 39.5978 35.8437 39.6666 35.9821C39.735 36.1201 39.7877 36.2819 39.8247 36.4672C39.8617 36.6533 39.8799 36.8529 39.8801 37.0654C39.8801 37.2848 39.8612 37.4867 39.8234 37.6705C39.7854 37.8547 39.7321 38.0147 39.6636 38.1505C39.5948 38.287 39.5121 38.3935 39.4159 38.4694C39.3196 38.5458 39.214 38.5843 39.0991 38.5839C38.9782 38.5839 38.87 38.5469 38.7751 38.4724C38.6794 38.3979 38.5985 38.2936 38.5322 38.159C38.4655 38.0243 38.4141 37.8639 38.3784 37.6779C38.3422 37.4925 38.3242 37.2881 38.3244 37.0654ZM38.7731 36.0881C38.685 36.3039 38.641 36.6298 38.641 37.0654C38.641 37.2812 38.6529 37.4709 38.6767 37.6335C38.7001 37.7964 38.7321 37.9314 38.7731 38.039C38.8142 38.1472 38.8624 38.228 38.9176 38.2812C38.9729 38.3344 39.0334 38.3608 39.0991 38.3608C39.1626 38.3608 39.2232 38.3344 39.2805 38.2812C39.3379 38.228 39.3872 38.1472 39.4282 38.039C39.4692 37.9314 39.5019 37.796 39.5266 37.6335C39.5512 37.4705 39.5636 37.2812 39.5633 37.0654C39.5633 36.8496 39.551 36.6591 39.5266 36.494C39.5019 36.3296 39.4688 36.1935 39.4269 36.0848C39.3847 35.9773 39.3356 35.8958 39.2793 35.8408C39.2227 35.7861 39.1626 35.759 39.0991 35.759C38.972 35.759 38.8634 35.8687 38.7731 36.0881ZM41.4943 35.8969L40.8578 38.7113H40.7932L40.1568 35.9024L39.963 35.8386C39.9547 35.7821 39.9547 35.7113 39.963 35.6261C40.0758 35.6404 40.1978 35.6474 40.3289 35.6474C40.4458 35.6474 40.5699 35.6423 40.701 35.6316C40.7133 35.7025 40.7133 35.7714 40.701 35.8386L40.5074 35.9024L40.7564 37.1237C40.8282 37.4779 40.8754 37.7344 40.8977 37.8936H40.9039C40.9532 37.5891 41.0012 37.3414 41.0483 37.1502L41.3129 35.8812L41.073 35.8386C41.0647 35.7821 41.0647 35.7113 41.073 35.6261C41.1858 35.6404 41.2933 35.6474 41.396 35.6474C41.482 35.6474 41.5917 35.6423 41.7249 35.6316C41.7372 35.7025 41.7372 35.7714 41.7249 35.8386L41.4943 35.8969ZM43.093 36.9802H42.1275C42.109 37.883 42.2658 38.3344 42.5979 38.3344C42.7395 38.3344 42.8839 38.2265 43.0316 38.0103C43.0624 38.0423 43.086 38.0969 43.1024 38.1751C42.9609 38.4478 42.7815 38.5839 42.5642 38.5839C42.064 38.5839 41.8139 38.076 41.8139 37.0599C41.8139 36.5784 41.8876 36.2037 42.0353 35.9362C42.183 35.6694 42.3551 35.5358 42.5518 35.5358C42.7671 35.5358 42.9218 35.665 43.0161 35.9234C43.1104 36.1817 43.1576 36.5182 43.1576 36.9325C43.1372 36.9608 43.1155 36.9769 43.093 36.9802ZM42.5457 35.7483C42.439 35.7483 42.3485 35.8437 42.2739 36.0349C42.1989 36.2261 42.1532 36.4705 42.1369 36.7678H42.5181C42.6698 36.7678 42.7783 36.752 42.844 36.7201C42.844 36.4298 42.8183 36.1949 42.7671 36.0158C42.7159 35.8375 42.6421 35.7483 42.5457 35.7483ZM43.9446 35.6423L43.9387 36.1891C43.9899 36.0261 44.0613 35.8764 44.1526 35.7399C44.2436 35.6041 44.3301 35.5358 44.4121 35.5358C44.4756 35.5358 44.5319 35.5483 44.5812 35.5729C44.5976 35.6188 44.6059 35.679 44.6059 35.7535C44.6059 35.8702 44.5914 35.9872 44.5627 36.1039C44.489 36.0687 44.4182 36.0507 44.3507 36.0511C44.1826 36.0511 44.0443 36.1927 43.9355 36.4757L43.9293 37.4052V38.207L44.2706 38.2867C44.2788 38.3432 44.2788 38.414 44.2706 38.4991C44.1414 38.4885 43.9939 38.4834 43.828 38.483C43.703 38.483 43.5543 38.4867 43.382 38.4936C43.3697 38.4265 43.3697 38.3575 43.382 38.2867L43.6251 38.2283C43.6333 38.0335 43.6374 37.8089 43.6372 37.5538V36.0988C43.6372 36.028 43.6342 35.9626 43.628 35.9024L43.3852 35.8492C43.3769 35.796 43.3769 35.7289 43.3852 35.6474C43.5267 35.6298 43.7028 35.5924 43.914 35.5358C43.9325 35.5711 43.9427 35.6067 43.9446 35.6423ZM44.864 37.8885C44.9193 37.8885 44.966 37.9197 45.0042 37.9817C45.0419 38.0434 45.0608 38.1201 45.0608 38.2122C45.0608 38.3043 45.0419 38.3828 45.0042 38.4481C44.9662 38.5138 44.9203 38.5469 44.8672 38.5469C44.8139 38.5469 44.7684 38.5138 44.7306 38.4481C44.6925 38.3832 44.6734 38.3043 44.6734 38.2122C44.6734 38.1201 44.6919 38.0434 44.7287 37.9817C44.7656 37.9193 44.8107 37.8881 44.864 37.8885ZM46.1123 38.4885C46.1 38.4247 46.1 38.3612 46.1123 38.2973L46.3675 38.2335C46.3758 38.0988 46.3798 37.8918 46.3798 37.6122V34.4845L46.1308 34.4313C46.1225 34.378 46.1225 34.3127 46.1308 34.2349C46.1616 34.2386 46.2096 34.2401 46.2753 34.2401C46.4064 34.2401 46.5762 34.2302 46.7844 34.2103C46.9922 34.1913 47.1116 34.1817 47.1424 34.1817C47.5442 34.1817 47.8485 34.3692 48.0554 34.7447C48.2624 35.1201 48.3661 35.6243 48.3661 36.258C48.3661 36.9025 48.2687 37.4368 48.0739 37.8617C47.8793 38.2867 47.6067 38.4988 47.2561 38.4991C47.1392 38.4991 46.9845 38.4966 46.7918 38.4914C46.5991 38.4859 46.4608 38.483 46.3769 38.483C46.2579 38.483 46.1699 38.4848 46.1123 38.4885ZM47.1392 38.2441C47.7172 38.2441 48.0063 37.5927 48.0063 36.29C48.0063 35.727 47.9311 35.2826 47.7807 34.9571C47.6298 34.6313 47.4129 34.458 47.1301 34.4368C47.1054 34.4331 47.0676 34.4316 47.0162 34.4313C46.9076 34.4313 46.8092 34.4456 46.7211 34.4738C46.7128 34.6085 46.7087 34.8224 46.7087 35.1164V38.2283C46.7334 38.2283 46.7925 38.2313 46.8859 38.2368C46.979 38.2419 47.0634 38.2441 47.1392 38.2441ZM49.9556 36.9802H48.9901C48.9716 37.883 49.1284 38.3344 49.4605 38.3344C49.602 38.3344 49.7465 38.2265 49.8942 38.0103C49.925 38.0423 49.9486 38.0969 49.9647 38.1751C49.8232 38.4478 49.6439 38.5839 49.4267 38.5839C48.9266 38.5839 48.6765 38.076 48.6765 37.0599C48.6765 36.5784 48.7502 36.2037 48.8979 35.9362C49.0456 35.6694 49.2177 35.5358 49.4144 35.5358C49.6297 35.5358 49.7843 35.665 49.8787 35.9234C49.973 36.1817 50.0202 36.5182 50.0202 36.9325C49.9998 36.9608 49.9781 36.9769 49.9556 36.9802ZM49.4083 35.7483C49.3016 35.7483 49.2111 35.8437 49.1365 36.0349C49.0615 36.2261 49.0158 36.4705 48.9995 36.7678H49.3806C49.5323 36.7678 49.6409 36.752 49.7066 36.7201C49.7066 36.4298 49.6809 36.1949 49.6297 36.0158C49.5785 35.8375 49.5047 35.7483 49.4083 35.7483ZM50.7581 35.1113V38.207L51.0072 38.2867C51.0154 38.3432 51.0154 38.414 51.0072 38.4991C50.878 38.4885 50.7458 38.4834 50.6105 38.483C50.5161 38.483 50.3829 38.4867 50.2108 38.4936C50.1985 38.4265 50.1985 38.3575 50.2108 38.2867L50.4536 38.2283C50.4619 38.0335 50.466 37.8089 50.466 37.5538V34.5109L50.214 34.458C50.2057 34.4048 50.2057 34.3377 50.214 34.2562C50.3555 34.2386 50.5316 34.2012 50.7426 34.1447C50.7611 34.1799 50.7713 34.2155 50.7734 34.2507C50.7632 34.3428 50.7581 34.6294 50.7581 35.1113ZM51.7113 36.5025V38.207L51.9603 38.2867C51.9624 38.3043 51.9639 38.3204 51.9652 38.3344C51.9661 38.3487 51.9665 38.3645 51.9665 38.3821C51.9665 38.3997 51.9661 38.418 51.9652 38.4375C51.9639 38.4573 51.9622 38.4779 51.9603 38.4991C51.8311 38.4885 51.699 38.4834 51.5636 38.483C51.5165 38.483 51.4597 38.4841 51.3932 38.4863C51.3265 38.4878 51.25 38.4903 51.164 38.4936C51.1578 38.4617 51.1548 38.4283 51.1546 38.3927C51.1546 38.3608 51.1576 38.3256 51.164 38.2867L51.4068 38.2283C51.4109 38.1292 51.414 38.0236 51.416 37.9116C51.4181 37.8004 51.4189 37.6812 51.4191 37.5538V36.4228C51.4191 36.1891 51.4162 36.0158 51.4098 35.9024L51.1669 35.8492C51.1629 35.8316 51.1608 35.8015 51.1608 35.759C51.1608 35.7414 51.1608 35.7237 51.1608 35.7058C51.1608 35.6881 51.1629 35.6687 51.1669 35.6474C51.3063 35.6331 51.4827 35.596 51.6958 35.5358C51.7143 35.5711 51.7245 35.6067 51.7266 35.6423C51.7164 35.7413 51.7113 36.0283 51.7113 36.5025ZM51.2623 34.6067C51.2583 34.5891 51.2562 34.5703 51.2562 34.5502C51.2562 34.5311 51.2562 34.5127 51.2562 34.4951C51.2562 34.3997 51.2793 34.3223 51.3257 34.2635C51.3715 34.2056 51.4283 34.1766 51.4961 34.1766C51.5596 34.1766 51.6114 34.2092 51.6516 34.2742C51.6913 34.3399 51.7113 34.4294 51.7113 34.5428C51.7113 34.6349 51.6883 34.7091 51.6422 34.7659C51.5959 34.8224 51.5369 34.8511 51.4653 34.8507C51.416 34.8507 51.3726 34.8294 51.3348 34.7872C51.2968 34.7447 51.2725 34.6845 51.2623 34.6067ZM52.3938 38.5362C52.4123 38.5505 52.4276 38.5806 52.4399 38.6265C52.3723 38.7219 52.3383 38.8654 52.3385 39.0566C52.3385 39.2265 52.3836 39.3626 52.4737 39.4654C52.5638 39.5681 52.6806 39.6195 52.8243 39.6195C52.9719 39.6195 53.0947 39.5729 53.1931 39.4793C53.2915 39.385 53.3408 39.2533 53.3408 39.083C53.3408 38.8988 53.3212 38.7637 53.2824 38.6775C53.2435 38.5905 53.1655 38.538 53.0486 38.5201L52.4737 38.4298C52.4101 38.4155 52.3574 38.3579 52.3156 38.2569C52.2733 38.1564 52.2523 38.0584 52.2523 37.9626L52.4584 37.3733C52.364 37.2812 52.2931 37.159 52.245 37.0067C52.1966 36.8544 52.1724 36.6988 52.1724 36.5395C52.1724 36.2386 52.237 35.996 52.3662 35.8122C52.4953 35.628 52.6439 35.5362 52.8119 35.5358C52.9738 35.5358 53.1164 35.6103 53.2392 35.759C53.2494 35.2738 53.354 35.0224 53.5528 35.0048C53.6062 35.0261 53.6327 35.1021 53.6329 35.2331C53.6329 35.3039 53.6289 35.3817 53.6206 35.4669C53.5407 35.4775 53.4751 35.5223 53.4239 35.6019C53.3727 35.6819 53.3357 35.7733 53.3132 35.8757C53.4156 36.0525 53.467 36.2738 53.4668 36.5395C53.4668 36.8191 53.4011 37.0518 53.27 37.2371C53.1389 37.4232 52.9862 37.5164 52.8119 37.5168C52.7197 37.5168 52.6366 37.4955 52.5629 37.4529L52.4584 37.9256L53.2239 38.0584C53.3429 38.0834 53.4336 38.1582 53.4963 38.2834C53.5586 38.4092 53.5898 38.5733 53.5898 38.7751C53.5898 39.1292 53.5161 39.4012 53.3684 39.5909C53.2207 39.7799 53.021 39.8746 52.7688 39.8742C52.5597 39.8742 52.3967 39.8089 52.2801 39.6779C52.1632 39.5469 52.1048 39.3718 52.1048 39.152C52.1048 39.0034 52.1324 38.8716 52.1877 38.7571C52.2429 38.6419 52.3118 38.5681 52.3938 38.5362ZM52.449 36.5395C52.449 36.745 52.4824 36.9201 52.5493 37.0654C52.6158 37.2107 52.7042 37.283 52.8149 37.283C52.9235 37.283 53.0127 37.2111 53.0824 37.0672C53.1521 36.9241 53.187 36.7483 53.187 36.5395C53.187 36.3131 53.1527 36.1241 53.0843 35.9733C53.0155 35.8232 52.9256 35.748 52.8149 35.7483C52.7104 35.7483 52.6233 35.8243 52.5536 35.9766C52.4839 36.1289 52.449 36.3164 52.449 36.5395ZM53.9495 37.5538V35.0313C53.9495 34.7975 53.9466 34.6243 53.9404 34.5109L53.6973 34.458C53.689 34.4048 53.689 34.3377 53.6973 34.2562C53.8346 34.2386 54.0099 34.2012 54.2232 34.1447C54.2417 34.1799 54.2519 34.2155 54.254 34.2507C54.2438 34.3428 54.2387 34.6294 54.2385 35.1113V36.1146C54.3902 35.7535 54.5725 35.5729 54.7858 35.5729C54.9129 35.5729 55.0215 35.628 55.1118 35.7377C55.2019 35.8474 55.2471 36.0349 55.2469 36.3006V38.207L55.4962 38.2867C55.5044 38.3432 55.5044 38.414 55.4962 38.4991C55.367 38.4885 55.2359 38.4834 55.1024 38.483C55.0081 38.483 54.8749 38.4867 54.7028 38.4936C54.6904 38.4265 54.6904 38.3575 54.7028 38.2867L54.9456 38.2283C54.9539 38.0335 54.9579 37.8089 54.9579 37.5538V36.5659C54.9579 36.3182 54.9401 36.1395 54.9044 36.0298C54.8683 35.9201 54.8031 35.865 54.7089 35.865C54.6309 35.865 54.5496 35.9146 54.4648 36.014C54.3796 36.1131 54.3042 36.2566 54.2385 36.4441V38.207L54.4875 38.2867C54.4958 38.3432 54.4958 38.414 54.4875 38.4991C54.3583 38.4885 54.2272 38.4834 54.094 38.483C53.9997 38.483 53.8665 38.4867 53.6943 38.4936C53.682 38.4265 53.682 38.3575 53.6943 38.2867L53.9372 38.2283C53.9455 38.0335 53.9495 37.8089 53.9495 37.5538ZM56.1293 35.0048V35.7641H56.563C56.567 35.8067 56.5692 35.8386 56.5692 35.8599C56.5692 35.8918 56.567 35.9289 56.563 35.9714L56.1293 36.083V37.5432C56.1293 37.8052 56.1431 37.9898 56.1706 38.0977C56.1984 38.2059 56.2422 38.2602 56.3017 38.2599C56.355 38.2599 56.4381 38.2228 56.5507 38.1487C56.5711 38.1806 56.5855 38.2408 56.5936 38.3292C56.5322 38.3931 56.4854 38.4397 56.4536 38.4694C56.4219 38.4999 56.3822 38.5267 56.3342 38.5502C56.2857 38.5729 56.2349 38.5843 56.1816 38.5839C56.0792 38.5839 55.9955 38.5157 55.9309 38.3792C55.8665 38.2434 55.8344 38.0353 55.8342 37.7557V36.0191L55.619 35.9714C55.6149 35.9362 55.6128 35.9061 55.6128 35.8812C55.6128 35.8529 55.6149 35.814 55.619 35.7641C55.6763 35.7465 55.7261 35.7153 55.7679 35.6709C55.8102 35.6269 55.8457 35.5652 55.8742 35.4848C55.9028 35.4056 55.9247 35.3347 55.94 35.2724C55.9555 35.2107 55.9747 35.1215 55.9972 35.0048C56.0157 34.9942 56.0382 34.9891 56.065 34.9891C56.0896 34.9891 56.1111 34.9942 56.1293 35.0048ZM56.9841 37.8885C57.0394 37.8885 57.0859 37.9197 57.1237 37.9817C57.1618 38.0434 57.1809 38.1201 57.1809 38.2122C57.1809 38.3043 57.1618 38.3828 57.1237 38.4481C57.0861 38.5138 57.0404 38.5469 56.9873 38.5469C56.934 38.5469 56.8883 38.5138 56.8501 38.4481C56.8124 38.3832 56.7935 38.3043 56.7935 38.2122C56.7935 38.1201 56.812 38.0434 56.849 37.9817C56.886 37.9193 56.931 37.8881 56.9841 37.8885Z" fill="#65A2C2"/>
<g clip-path="url(#clip2_381_3292)">
<g clip-path="url(#clip3_381_3292)">
<g clip-path="url(#clip4_381_3292)">
<g clip-path="url(#clip5_381_3292)">
<g clip-path="url(#clip6_381_3292)">
<g clip-path="url(#clip7_381_3292)">
<g clip-path="url(#clip8_381_3292)">
<path d="M6.39185 14.0447V14.5977H7.37524V22.0186C7.39205 25.337 8.34854 27.0035 10.2447 27.0181C11.6904 27.0181 12.5645 25.9975 12.8671 23.9565C12.9579 23.3323 13.0033 22.6225 13.0033 21.827V14.5977H13.9892V14.0447H11.5862V14.5977H12.5721V21.9576C12.5721 24.707 11.9812 26.1877 10.7995 26.3997C10.7003 26.4142 10.6019 26.4214 10.5044 26.4214C9.50255 26.4214 8.87049 25.6912 8.60826 24.2309C8.49227 23.5922 8.43427 22.8126 8.43427 21.8923V14.5977H9.40758V14.0447H6.39185ZM17.1764 26.2734H16.2888V22.0403C16.2888 20.7513 16.5191 19.7163 16.9797 18.9353C17.1596 18.6391 17.3108 18.4838 17.4336 18.4693C17.5731 18.4693 17.7008 18.6464 17.8168 19.0006C17.9479 19.3983 18.0707 19.6248 18.185 19.68C18.2354 19.709 18.285 19.7235 18.3337 19.7235C18.5792 19.7235 18.7347 19.5174 18.8002 19.1051C18.817 19.0209 18.8254 18.9367 18.8254 18.8525C18.8254 18.2138 18.6372 17.8233 18.2606 17.681C18.1782 17.6549 18.1001 17.6419 18.0261 17.6419C17.5336 17.6419 17.094 18.0033 16.7074 18.7262C16.5275 19.0659 16.3838 19.4477 16.2762 19.8716L16.2283 17.7681H14.443V18.2994H15.3659V24.9974C15.3659 25.6506 15.2592 26.0411 15.0457 26.1688C14.923 26.2385 14.7221 26.2734 14.443 26.2734V26.8047H17.484C17.484 26.494 17.4226 26.3242 17.2999 26.2951C17.2663 26.2806 17.2251 26.2734 17.1764 26.2734ZM22.6556 27.0181C23.3768 27.0181 23.9836 26.5506 24.4761 25.6158C24.9367 24.707 25.167 23.5588 25.167 22.171C25.167 20.609 24.9208 19.3896 24.4282 18.5128C24.0584 17.8741 23.6029 17.5548 23.0616 17.5548C22.1656 17.5548 21.5293 18.2486 21.1528 19.6364C21.1108 19.7642 21.078 19.8919 21.0545 20.0197V12.9821H19.2062V13.5134H20.1316V24.9974C20.1316 25.6506 20.0248 26.0411 19.8113 26.1688C19.6869 26.2385 19.4852 26.2734 19.2062 26.2734V26.8047H20.7594L20.8704 25.4024C21.2217 26.3808 21.7546 26.9121 22.469 26.9963C22.5346 27.0108 22.5968 27.0181 22.6556 27.0181ZM22.6783 18.404C23.3524 18.404 23.792 19.1138 23.9971 20.5335C24.0794 21.0561 24.1206 21.6513 24.1206 22.3191C24.1206 24.3165 23.8079 25.6129 23.1826 26.208C22.9859 26.3938 22.7691 26.4868 22.5321 26.4868C21.9151 26.4868 21.4797 25.9192 21.2259 24.784C21.1032 24.1888 21.0418 23.5007 21.0418 22.7197C21.0418 21.0068 21.2881 19.7671 21.7806 19.0006C22.0429 18.6028 22.3421 18.404 22.6783 18.404ZM30.4723 27.0181C31.1044 27.0181 31.4532 26.359 31.5187 25.0409C31.5271 24.9538 31.5313 24.8754 31.5313 24.8057L31.2111 24.784C31.154 25.8204 30.9934 26.3445 30.7295 26.3561C30.516 26.33 30.4059 25.9627 30.3992 25.2543V20.7643C30.3992 18.7378 29.8117 17.668 28.6366 17.5548C28.5627 17.5548 28.4887 17.5548 28.4148 17.5548C27.4969 17.5548 26.8817 17.9235 26.569 18.6609C26.4698 18.9019 26.4202 19.1429 26.4202 19.3838C26.4202 19.8222 26.5396 20.0777 26.7783 20.1503C26.8186 20.1648 26.8598 20.1721 26.9018 20.1721C27.0901 20.1721 27.2296 19.9659 27.3204 19.5537C27.4347 19.0282 27.5129 18.7161 27.5549 18.6174C27.7096 18.2632 27.9516 18.0861 28.2811 18.0861C29.0527 18.1703 29.4503 18.9004 29.4738 20.2766V21.6179C27.5457 21.6179 26.4421 22.3118 26.163 23.6996C26.1143 23.9696 26.0899 24.2599 26.0899 24.5706C26.0899 25.6477 26.3648 26.3851 26.9144 26.7829C27.1363 26.9397 27.37 27.0181 27.6154 27.0181C28.2139 27.0181 28.719 26.6639 29.1309 25.9554C29.2788 25.6854 29.3889 25.4009 29.4612 25.1019C29.5604 26.3648 29.8974 27.0035 30.4723 27.0181ZM28.0214 26.1688C27.5205 26.1688 27.2128 25.7362 27.0985 24.8711C27.0733 24.6707 27.0607 24.4501 27.0607 24.2091C27.0607 23.2597 27.3767 22.6573 28.0088 22.4018C28.345 22.2741 28.8333 22.2029 29.4738 22.1884V23.8912C29.3511 24.8696 29.0519 25.5577 28.5761 25.9554C28.3879 26.0977 28.2029 26.1688 28.0214 26.1688ZM34.363 26.2734H33.8083V21.6789C33.8335 20.3608 34.1041 19.4114 34.6202 18.8308C34.8421 18.5898 35.0682 18.4693 35.2985 18.4693C35.7994 18.4693 36.1398 18.8728 36.3197 19.68C36.3937 20.008 36.4306 20.3768 36.4306 20.7861V24.9974C36.4306 25.6506 36.3239 26.0411 36.1104 26.1688C35.9877 26.2385 35.7868 26.2734 35.5078 26.2734V26.8047H38.2764C38.2764 26.494 38.215 26.3242 38.0923 26.2951C38.0604 26.2806 38.0192 26.2734 37.9688 26.2734H37.3535V20.9995C37.3535 19.5827 37.0703 18.5695 36.5038 17.9598C36.2415 17.6898 35.9583 17.5548 35.654 17.5548C35.0472 17.5548 34.5471 17.9728 34.1537 18.809C34.0058 19.1341 33.8864 19.4956 33.7957 19.8934L33.7452 17.7681H31.96V18.2994H32.8854V24.9974C32.8854 25.6506 32.7787 26.0411 32.5652 26.1688C32.4408 26.2385 32.239 26.2734 31.96 26.2734V26.8047H34.6706C34.6706 26.494 34.6084 26.3242 34.484 26.2951C34.4521 26.2806 34.4118 26.2734 34.363 26.2734ZM44.8147 16.9363C44.8147 15.8592 44.5188 15.0594 43.9271 14.5368C43.5422 14.2087 43.079 14.0447 42.5378 14.0447H39.0757V14.5977H40.0616V26.2516H39.0757V26.8047H42.5731C43.6321 26.8047 44.4079 26.224 44.9004 25.0627C45.1542 24.453 45.2812 23.7867 45.2812 23.0638C45.2812 21.9286 44.9903 21.0489 44.4087 20.4247C44.1381 20.1547 43.8262 19.963 43.4732 19.8498C44.0633 19.4666 44.4692 18.822 44.6911 17.9162C44.7735 17.5765 44.8147 17.2499 44.8147 16.9363ZM41.1207 14.5977H42.2402C43.0858 14.5977 43.5665 15.2437 43.6825 16.5357C43.6977 16.7186 43.7052 16.9088 43.7052 17.1062C43.7052 18.0294 43.4959 18.7248 43.0774 19.1922C42.8319 19.4622 42.5453 19.5972 42.2175 19.5972H41.1207V14.5977ZM41.1207 20.1721H42.4495C43.1975 20.1721 43.6985 20.7179 43.9523 21.8095C44.0515 22.2044 44.1011 22.6355 44.1011 23.103C44.1011 24.1946 43.8952 25.0453 43.4833 25.655C43.2127 26.0527 42.8891 26.2516 42.5125 26.2516H41.1207V20.1721ZM50.6495 27.0181C51.2815 27.0181 51.6303 26.359 51.6959 25.0409C51.7043 24.9538 51.7085 24.8754 51.7085 24.8057L51.3883 24.784C51.3311 25.8204 51.1714 26.3445 50.9092 26.3561C50.6957 26.33 50.5847 25.9627 50.5763 25.2543V20.7643C50.5763 18.7378 49.9897 17.668 48.8163 17.5548C48.7424 17.5548 48.6684 17.5548 48.5944 17.5548C47.6749 17.5548 47.0588 17.9235 46.7462 18.6609C46.6487 18.9019 46.5999 19.1429 46.5999 19.3838C46.5999 19.8222 46.7184 20.0777 46.9554 20.1503C46.9975 20.1648 47.0387 20.1721 47.079 20.1721C47.2673 20.1721 47.4068 19.9659 47.4976 19.5537C47.6119 19.0282 47.69 18.7161 47.7321 18.6174C47.8884 18.2632 48.1305 18.0861 48.4583 18.0861C49.2299 18.1703 49.6283 18.9004 49.6535 20.2766V21.6179C47.7237 21.6179 46.6192 22.3118 46.3402 23.6996C46.2914 23.9696 46.2671 24.2599 46.2671 24.5706C46.2671 25.6477 46.5419 26.3851 47.0916 26.7829C47.3135 26.9397 47.5472 27.0181 47.7926 27.0181C48.3927 27.0181 48.8979 26.6639 49.308 25.9554C49.4559 25.6854 49.5669 25.4009 49.6409 25.1019C49.7384 26.3648 50.0746 27.0035 50.6495 27.0181ZM48.1986 26.1688C47.6993 26.1688 47.3917 25.7362 47.2757 24.8711C47.2521 24.6707 47.2404 24.4501 47.2404 24.2091C47.2404 23.2597 47.5556 22.6573 48.1859 22.4018C48.5238 22.2741 49.013 22.2029 49.6535 22.1884V23.8912C49.5291 24.8696 49.229 25.5577 48.7533 25.9554C48.565 26.0977 48.3801 26.1688 48.1986 26.1688ZM55.4025 26.2516H53.1861L56.5221 18.1078V17.6593H52.3616L52.2506 20.4247H52.4347L52.7297 19.2575C52.9096 18.5753 53.1718 18.2269 53.5164 18.2123H55.5009L52.0413 26.3387V26.8047H56.5347L56.57 23.5951H56.3985L56.2497 24.7622C56.1607 25.5432 55.9514 26.0179 55.6219 26.1863C55.5496 26.2298 55.4765 26.2516 55.4025 26.2516ZM61.7794 27.0181C62.4115 27.0181 62.7603 26.359 62.8259 25.0409C62.8343 24.9538 62.8385 24.8754 62.8385 24.8057L62.5182 24.784C62.4594 25.8204 62.2989 26.3445 62.0366 26.3561C61.8231 26.33 61.7122 25.9627 61.7038 25.2543V20.7643C61.7038 18.7378 61.1171 17.668 59.9438 17.5548C59.8698 17.5548 59.7958 17.5548 59.7219 17.5548C58.8024 17.5548 58.1871 17.9235 57.8761 18.6609C57.7769 18.9019 57.7274 19.1429 57.7274 19.3838C57.7274 19.8222 57.8467 20.0777 58.0854 20.1503C58.1258 20.1648 58.1669 20.1721 58.209 20.1721C58.3972 20.1721 58.5368 19.9659 58.6275 19.5537C58.7418 19.0282 58.8192 18.7161 58.8595 18.6174C59.0159 18.2632 59.2579 18.0861 59.5857 18.0861C60.3573 18.1703 60.7557 18.9004 60.7809 20.2766V21.6179C58.8528 21.6179 57.7492 22.3118 57.4702 23.6996C57.4197 23.9696 57.3945 24.2599 57.3945 24.5706C57.3945 25.6477 57.6694 26.3851 58.219 26.7829C58.4409 26.9397 58.6754 27.0181 58.9226 27.0181C59.521 27.0181 60.0253 26.6639 60.4355 25.9554C60.5834 25.6854 60.6943 25.4009 60.7683 25.1019C60.8675 26.3648 61.2045 27.0035 61.7794 27.0181ZM59.3285 26.1688C58.8276 26.1688 58.52 25.7362 58.4056 24.8711C58.3804 24.6707 58.3678 24.4501 58.3678 24.2091C58.3678 23.2597 58.6838 22.6573 59.3159 22.4018C59.6521 22.2741 60.1404 22.2029 60.7809 22.1884V23.8912C60.6582 24.8696 60.359 25.5577 59.8833 25.9554C59.6933 26.0977 59.5084 26.1688 59.3285 26.1688ZM67.7125 27.0181C68.3446 27.0181 68.6934 26.359 68.759 25.0409C68.7674 24.9538 68.7716 24.8754 68.7716 24.8057L68.4514 24.784C68.3942 25.8204 68.2337 26.3445 67.9697 26.3561C67.7563 26.33 67.6461 25.9627 67.6394 25.2543V20.7643C67.6394 18.7378 67.0519 17.668 65.8769 17.5548C65.8029 17.5548 65.729 17.5548 65.655 17.5548C64.7372 17.5548 64.1219 17.9235 63.8092 18.6609C63.7101 18.9019 63.6605 19.1429 63.6605 19.3838C63.6605 19.8222 63.7798 20.0777 64.0185 20.1503C64.0589 20.1648 64.1001 20.1721 64.1421 20.1721C64.3304 20.1721 64.4699 19.9659 64.5607 19.5537C64.675 19.0282 64.7531 18.7161 64.7952 18.6174C64.9498 18.2632 65.1919 18.0861 65.5214 18.0861C66.2929 18.1703 66.6905 18.9004 66.714 20.2766V21.6179C64.7859 21.6179 63.6823 22.3118 63.4033 23.6996C63.3545 23.9696 63.3302 24.2599 63.3302 24.5706C63.3302 25.6477 63.605 26.3851 64.1547 26.7829C64.3766 26.9397 64.6102 27.0181 64.8557 27.0181C65.4558 27.0181 65.9609 26.6639 66.3711 25.9554C66.519 25.6854 66.6291 25.4009 66.7014 25.1019C66.8006 26.3648 67.1376 27.0035 67.7125 27.0181ZM65.2616 26.1688C64.7607 26.1688 64.4531 25.7362 64.3388 24.8711C64.3135 24.6707 64.3009 24.4501 64.3009 24.2091C64.3009 23.2597 64.617 22.6573 65.249 22.4018C65.5869 22.2741 66.0752 22.2029 66.714 22.1884V23.8912C66.5913 24.8696 66.2921 25.5577 65.8164 25.9554C65.6281 26.0977 65.4432 26.1688 65.2616 26.1688ZM71.9588 26.2734H71.0737V22.0403C71.0737 20.7513 71.3032 19.7163 71.7621 18.9353C71.942 18.6391 72.0941 18.4838 72.2185 18.4693C72.358 18.4693 72.4849 18.6464 72.5993 19.0006C72.7304 19.3983 72.8539 19.6248 72.9699 19.68C73.0187 19.709 73.0674 19.7235 73.1162 19.7235C73.3633 19.7235 73.5196 19.5174 73.5852 19.1051C73.6003 19.0209 73.6079 18.9367 73.6079 18.8525C73.6079 18.2138 73.4196 17.8233 73.043 17.681C72.9607 17.6549 72.8825 17.6419 72.8085 17.6419C72.316 17.6419 71.8773 18.0033 71.4923 18.7262C71.3108 19.0659 71.167 19.4477 71.0611 19.8716L71.0107 17.7681H69.2255V18.2994H70.1483V24.9974C70.1483 25.6506 70.0416 26.0411 69.8281 26.1688C69.7054 26.2385 69.5045 26.2734 69.2255 26.2734V26.8047H72.2664C72.2664 26.494 72.2051 26.3242 72.0823 26.2951C72.0487 26.2806 72.0075 26.2734 71.9588 26.2734Z" fill="#65A2C2"/>
</g>

<svg width="75" height="42" viewBox="0 0 75 42" fill="none" xmlns="http://www.w3.org/2000/svg">
<g clip-path="url(#clip0_407_1345)">
<path d="M0.142517 38.9903V0.0742188H74.8574V38.9903H55.6684V37.6804H74.1704V1.38416H0.829548V37.6804H19.3316V38.9903H0.142517Z" fill="#65A2C2"/>
<path d="M21.557 38.5529L21.6494 39.4432C21.761 39.5898 21.9176 39.6631 22.1192 39.6631C22.2556 39.6631 22.358 39.5879 22.4265 39.4379C22.4946 39.2875 22.5285 39.1082 22.5285 38.8993C22.5285 38.7895 22.5237 38.6969 22.5142 38.6213C22.5046 38.5465 22.4841 38.4614 22.4524 38.3661C22.4205 38.2707 22.3699 38.1754 22.3008 38.0804C22.2317 37.9851 22.1413 37.8845 22.0299 37.7781C21.8992 37.6535 21.7935 37.5362 21.7128 37.4264C21.6321 37.3167 21.5716 37.2031 21.5311 37.0854C21.4907 36.968 21.4638 36.8563 21.4505 36.7504C21.4369 36.644 21.4303 36.5122 21.4303 36.3546C21.4303 36.0322 21.4983 35.7819 21.6337 35.6038C21.769 35.4264 21.9289 35.3379 22.1134 35.3379C22.3421 35.3379 22.563 35.4477 22.7763 35.6676V36.7227C22.711 36.7447 22.6562 36.7447 22.6122 36.7227L22.5199 35.772C22.397 35.6436 22.2596 35.5798 22.1076 35.5798C22.0058 35.5798 21.9198 35.6376 21.85 35.7534C21.7797 35.8685 21.7445 36.0303 21.7445 36.2392C21.7445 36.3565 21.7483 36.4481 21.756 36.5141C21.7638 36.5802 21.7829 36.6577 21.8136 36.747C21.8443 36.837 21.8953 36.927 21.9664 37.0162C22.0375 37.1062 22.1325 37.2065 22.2518 37.3163C22.663 37.6972 22.8687 38.1515 22.8687 38.6794C22.8687 39.0531 22.7938 39.3554 22.6438 39.5864C22.494 39.8173 22.298 39.9327 22.0558 39.9324C21.8156 39.9324 21.5947 39.8241 21.3929 39.608V38.5529C21.4582 38.5309 21.5128 38.5309 21.557 38.5529ZM23.3558 38.8663V36.2555C23.3558 36.0136 23.353 35.8343 23.3472 35.7169L23.1193 35.6622C23.1116 35.6072 23.1116 35.5377 23.1193 35.4534C23.248 35.4351 23.4123 35.3964 23.6123 35.3379C23.6297 35.3744 23.6392 35.4112 23.6412 35.4477C23.6317 35.543 23.6269 35.8396 23.6267 36.3383V37.3767C23.7689 37.0029 23.9398 36.8161 24.1398 36.8161C24.2589 36.8161 24.3607 36.873 24.4454 36.9866C24.5298 37.1002 24.5723 37.2943 24.5721 37.5692V39.5423L24.8057 39.6247C24.8135 39.6832 24.8135 39.7565 24.8057 39.8446C24.6846 39.8336 24.5617 39.8283 24.4366 39.8279C24.3482 39.8279 24.2233 39.8317 24.0619 39.8389C24.0504 39.7694 24.0504 39.698 24.0619 39.6247L24.2896 39.5643C24.2974 39.3627 24.3012 39.1302 24.3012 38.8663V37.8438C24.3012 37.5875 24.2842 37.4025 24.2506 37.2889C24.2171 37.1754 24.1561 37.1184 24.0677 37.1184C23.9946 37.1184 23.9183 37.1697 23.8388 37.2726C23.7589 37.3752 23.6882 37.5237 23.6267 37.7177V39.5423L23.8601 39.6247C23.8679 39.6832 23.8679 39.7565 23.8601 39.8446C23.739 39.8336 23.6161 39.8283 23.4912 39.8279C23.4028 39.8279 23.2779 39.8317 23.1165 39.8389C23.105 39.7694 23.105 39.698 23.1165 39.6247L23.3442 39.5643C23.352 39.3627 23.3558 39.1302 23.3558 38.8663ZM24.9756 38.3607C24.9756 38.1408 24.9926 37.9346 25.0264 37.7417C25.0599 37.5499 25.1083 37.3824 25.1717 37.2396C25.235 37.0968 25.3115 36.984 25.4011 36.9008C25.4904 36.8187 25.5906 36.7777 25.7021 36.7777C25.8117 36.7777 25.9117 36.8187 26.0019 36.9008C26.0921 36.9836 26.1696 37.0964 26.2342 37.2396C26.2983 37.3824 26.3477 37.5499 26.3824 37.7417C26.417 37.9342 26.4342 38.1408 26.4342 38.3607C26.4342 38.5879 26.4164 38.7968 26.3812 38.987C26.3455 39.1777 26.2955 39.3433 26.2314 39.4838C26.1668 39.6251 26.0894 39.7352 25.9989 39.8139C25.9087 39.8929 25.8097 39.9327 25.7021 39.9324C25.5888 39.9324 25.4872 39.894 25.3977 39.8169C25.3085 39.7398 25.2328 39.6319 25.1707 39.4926C25.1081 39.3532 25.0599 39.1872 25.0264 38.9946C24.9926 38.8028 24.9756 38.5913 24.9756 38.3607ZM25.3965 37.3493C25.3139 37.5726 25.2726 37.9099 25.2726 38.3607C25.2726 38.5841 25.2838 38.7804 25.3061 38.9487C25.328 39.1173 25.3581 39.2571 25.3965 39.3684C25.435 39.4804 25.4802 39.564 25.532 39.619C25.5838 39.6741 25.6406 39.7014 25.7021 39.7014C25.7617 39.7014 25.8184 39.6741 25.8722 39.619C25.926 39.564 25.9722 39.4804 26.0105 39.3684C26.0489 39.2571 26.0796 39.1169 26.1027 38.9487C26.1258 38.78 26.1374 38.5841 26.1374 38.3607C26.1374 38.1374 26.1258 37.9403 26.1027 37.7694C26.0796 37.5992 26.0485 37.4583 26.0093 37.3459C25.9696 37.2346 25.9236 37.1503 25.871 37.0933C25.818 37.0367 25.7617 37.0086 25.7021 37.0086C25.583 37.0086 25.4812 37.1222 25.3965 37.3493ZM27.5325 39.6357C27.6594 39.6357 27.7598 39.5184 27.8339 39.284C27.9076 39.0497 27.9447 38.6961 27.9447 38.2233C27.9447 37.8605 27.9096 37.584 27.8397 37.3934C27.7694 37.2027 27.6766 37.1078 27.5612 37.1074C27.3921 37.1074 27.2461 37.2631 27.1232 37.5745V39.284C27.2308 39.5184 27.3672 39.6357 27.5325 39.6357ZM26.8493 40.3444V37.6737C26.8493 37.4283 26.8465 37.2559 26.8407 37.1571L26.6128 37.1021C26.6071 37.0436 26.6071 36.9737 26.6128 36.8932C26.7473 36.875 26.9126 36.8362 27.1086 36.7777C27.126 36.8108 27.1355 36.8472 27.1375 36.8879C27.128 37.0162 27.1232 37.1518 27.1232 37.2943C27.2788 36.9498 27.4576 36.7777 27.6592 36.7777C27.8283 36.7777 27.9692 36.9114 28.0819 37.1792C28.1941 37.4466 28.2502 37.8002 28.2502 38.2396C28.2502 38.7489 28.1767 39.1579 28.0299 39.4675C27.8827 39.7774 27.7092 39.9324 27.5094 39.9324C27.3692 39.9324 27.2403 39.8461 27.1232 39.6741V41.0205L27.4142 41.1029C27.422 41.1614 27.422 41.2347 27.4142 41.3228C27.2931 41.3118 27.1596 41.3065 27.0136 41.3065C26.9061 41.3065 26.7714 41.3103 26.6101 41.3175C26.5985 41.2442 26.5985 41.1728 26.6101 41.1029L26.8377 41.0425C26.8455 40.8408 26.8493 40.6084 26.8493 40.3444ZM28.6767 39.2126C28.7285 39.2126 28.7721 39.2449 28.8076 39.3091C28.8433 39.3729 28.8612 39.4523 28.8612 39.5476C28.8612 39.643 28.8433 39.7242 28.8076 39.7918C28.7723 39.8598 28.7295 39.894 28.6797 39.894C28.6297 39.894 28.5871 39.8598 28.5516 39.7918C28.516 39.7246 28.498 39.643 28.498 39.5476C28.498 39.4523 28.5154 39.3729 28.55 39.3091C28.5847 39.2445 28.6269 39.2123 28.6767 39.2126ZM29.847 39.8336C29.8355 39.7675 29.8355 39.7018 29.847 39.6357L30.0863 39.5697C30.094 39.4303 30.0978 39.2161 30.0978 38.9266V35.6896L29.8643 35.6345C29.8566 35.5794 29.8566 35.5118 29.8643 35.4313C29.8932 35.4351 29.9382 35.4366 29.9998 35.4366C30.1227 35.4366 30.2819 35.4264 30.4771 35.4059C30.6719 35.3861 30.7838 35.3762 30.8127 35.3762C31.1894 35.3762 31.4747 35.5703 31.6687 35.9589C31.8627 36.3474 31.9599 36.8693 31.9599 37.5252C31.9599 38.1921 31.8687 38.7451 31.686 39.1849C31.5035 39.6247 31.248 39.8443 30.9193 39.8446C30.8097 39.8446 30.6647 39.842 30.484 39.8367C30.3034 39.831 30.1737 39.8279 30.095 39.8279C29.9835 39.8279 29.901 39.8298 29.847 39.8336ZM30.8097 39.5807C31.3515 39.5807 31.6227 38.9065 31.6227 37.5582C31.6227 36.9756 31.5521 36.5157 31.4111 36.1788C31.2697 35.8415 31.0663 35.6622 30.8012 35.6402C30.7781 35.6364 30.7426 35.6349 30.6946 35.6345C30.5928 35.6345 30.5006 35.6493 30.4177 35.6786C30.4099 35.818 30.4062 36.0394 30.4062 36.3436V39.5643C30.4293 39.5643 30.4846 39.5674 30.5723 39.5731C30.6595 39.5784 30.7386 39.5807 30.8097 39.5807ZM32.7208 37.7781V39.5423L32.9543 39.6247C32.9563 39.643 32.9577 39.6597 32.9589 39.6741C32.9597 39.6889 32.9601 39.7052 32.9601 39.7235C32.9601 39.7417 32.9597 39.7607 32.9589 39.7808C32.9577 39.8013 32.9561 39.8226 32.9543 39.8446C32.8332 39.8336 32.7093 39.8283 32.5826 39.8279C32.5384 39.8279 32.4852 39.8291 32.4228 39.8313C32.3603 39.8329 32.2886 39.8355 32.2077 39.8389C32.2019 39.8059 32.1991 39.7713 32.1991 39.7345C32.1991 39.7014 32.2019 39.665 32.2077 39.6247L32.4356 39.5643C32.4394 39.4618 32.4424 39.3524 32.4441 39.2366C32.4461 39.1215 32.4469 38.998 32.4469 38.8663V37.6957C32.4469 37.4538 32.4441 37.2745 32.4384 37.1571L32.2107 37.1021C32.2069 37.0838 32.2049 37.0527 32.2049 37.0086C32.2049 36.9904 32.2049 36.9722 32.2049 36.9536C32.2049 36.9353 32.2069 36.9152 32.2107 36.8932C32.3414 36.8784 32.5067 36.84 32.7065 36.7777C32.7238 36.8142 32.7334 36.851 32.7352 36.8879C32.7256 36.9904 32.7208 37.2874 32.7208 37.7781ZM32.2999 35.8161C32.2961 35.7978 32.2942 35.7785 32.2944 35.7576C32.2944 35.7378 32.2944 35.7188 32.2944 35.7006C32.2944 35.6019 32.3161 35.5217 32.3595 35.4609C32.4025 35.4009 32.4557 35.3709 32.519 35.3709C32.5786 35.3709 32.6272 35.4047 32.6649 35.472C32.7021 35.5399 32.7208 35.6326 32.7208 35.75C32.7208 35.8453 32.6993 35.922 32.6563 35.9809C32.6129 36.0394 32.5575 36.069 32.4904 36.0686C32.4441 36.0686 32.4035 36.0466 32.3681 36.0029C32.3324 35.9589 32.3097 35.8966 32.2999 35.8161ZM33.6549 39.6904C33.7586 39.6904 33.8355 39.6445 33.8853 39.5533C33.9353 39.4618 33.9602 39.3554 33.9602 39.2343C33.9602 39.1648 33.9545 39.1006 33.9431 39.0421C33.9316 38.9836 33.913 38.9266 33.8871 38.8716C33.861 38.8165 33.8268 38.7626 33.7845 38.709C33.7423 38.6562 33.6893 38.5989 33.626 38.5366C33.5471 38.4595 33.4796 38.3862 33.423 38.3167C33.366 38.2472 33.3194 38.1739 33.283 38.0968C33.2465 38.0197 33.2192 37.9373 33.2011 37.8495C33.1826 37.7614 33.1734 37.6627 33.1734 37.5525C33.1734 37.4207 33.186 37.306 33.2109 37.2088C33.2358 37.1119 33.271 37.0314 33.3164 36.9669C33.3614 36.9031 33.4146 36.8556 33.476 36.8241C33.5375 36.7933 33.6057 36.7777 33.6808 36.7777C33.8306 36.7777 33.9768 36.8472 34.1188 36.9866V37.69H33.9833L33.92 37.0964C33.8355 37.0193 33.7461 36.9809 33.6519 36.9813C33.4943 36.9813 33.4154 37.104 33.4154 37.3493C33.4154 37.4811 33.4413 37.6023 33.4933 37.712C33.5451 37.8218 33.6288 37.9319 33.7441 38.0417C33.823 38.1188 33.8921 38.1921 33.9517 38.2616C34.0112 38.3311 34.0608 38.4044 34.1005 38.4815C34.1397 38.5586 34.1694 38.6418 34.1897 38.731C34.2096 38.8211 34.2196 38.9228 34.2198 39.0364C34.2198 39.1648 34.2054 39.2837 34.1766 39.3938C34.1477 39.5036 34.1074 39.5978 34.0555 39.6764C34.0037 39.7554 33.9411 39.818 33.868 39.8644C33.7949 39.91 33.7142 39.9324 33.626 39.9324C33.4549 39.9324 33.2945 39.8629 33.1445 39.7235V39.0201H33.28L33.3435 39.5643C33.4415 39.6486 33.5453 39.6908 33.6549 39.6904ZM35.7186 37.5913C35.6781 37.6718 35.5831 37.7105 35.4333 37.7067C35.4026 37.2449 35.3152 37.0143 35.171 37.014C35.0576 37.014 34.9614 37.1385 34.8827 37.3877C34.8038 37.6368 34.7646 37.9646 34.7646 38.3718C34.7646 38.7895 34.7993 39.1112 34.8684 39.3368C34.9375 39.5617 35.0413 39.6741 35.1795 39.6741C35.3255 39.6741 35.4688 39.5605 35.609 39.3334C35.6379 39.3665 35.66 39.4231 35.6753 39.5036C35.5351 39.7892 35.3592 39.9324 35.1479 39.9324C34.9461 39.9324 34.7807 39.7994 34.652 39.5336C34.5234 39.2685 34.4588 38.8773 34.459 38.3607C34.459 37.8662 34.5307 37.4785 34.674 37.1978C34.817 36.9179 34.9807 36.7777 35.1652 36.7777C35.3112 36.7777 35.4401 36.8472 35.5514 36.9866C35.663 37.126 35.7186 37.3273 35.7186 37.5913ZM35.9291 38.3607C35.9291 38.1408 35.946 37.9346 35.9797 37.7417C36.0132 37.5499 36.0616 37.3824 36.1251 37.2396C36.1885 37.0968 36.265 36.984 36.3544 36.9008C36.4436 36.8187 36.5438 36.7777 36.6554 36.7777C36.7649 36.7777 36.8649 36.8187 36.9552 36.9008C37.0454 36.9836 37.1229 37.0964 37.1874 37.2396C37.2516 37.3824 37.301 37.5499 37.3356 37.7417C37.3703 37.9342 37.3874 38.1408 37.3876 38.3607C37.3876 38.5879 37.3699 38.7968 37.3344 38.987C37.2988 39.1777 37.2488 39.3433 37.1846 39.4838C37.1201 39.6251 37.0426 39.7352 36.9524 39.8139C36.8621 39.8929 36.7631 39.9327 36.6554 39.9324C36.542 39.9324 36.4406 39.894 36.3516 39.8169C36.262 39.7398 36.1861 39.6319 36.1239 39.4926C36.0614 39.3532 36.0132 39.1872 35.9797 38.9946C35.9458 38.8028 35.9289 38.5913 35.9291 38.3607ZM36.3498 37.3493C36.2671 37.5726 36.2259 37.9099 36.2259 38.3607C36.2259 38.5841 36.2371 38.7804 36.2594 38.9487C36.2813 39.1173 36.3114 39.2571 36.3498 39.3684C36.3883 39.4804 36.4335 39.564 36.4853 39.619C36.5371 39.6741 36.5938 39.7014 36.6554 39.7014C36.7149 39.7014 36.7717 39.6741 36.8255 39.619C36.8793 39.564 36.9255 39.4804 36.9639 39.3684C37.0024 39.2571 37.0331 39.1169 37.0562 38.9487C37.0793 38.78 37.0908 38.5841 37.0906 38.3607C37.0906 38.1374 37.0791 37.9403 37.0562 37.7694C37.0331 37.5992 37.002 37.4583 36.9627 37.3459C36.9231 37.2346 36.8771 37.1503 36.8243 37.0933C36.7713 37.0367 36.7149 37.0086 36.6554 37.0086C36.5363 37.0086 36.4345 37.1222 36.3498 37.3493ZM38.9009 37.1514L38.3041 40.0642H38.2436L37.647 37.1571L37.4653 37.0911C37.4575 37.0326 37.4575 36.9593 37.4653 36.8712C37.5711 36.886 37.6854 36.8932 37.8083 36.8932C37.9179 36.8932 38.0342 36.8879 38.1571 36.8769C38.1687 36.9502 38.1687 37.0216 38.1571 37.0911L37.9757 37.1571L38.2091 38.4211C38.2764 38.7876 38.3207 39.0531 38.3416 39.218H38.3474C38.3936 38.9027 38.4386 38.6464 38.4828 38.4485L38.7308 37.1351L38.5059 37.0911C38.4981 37.0326 38.4981 36.9593 38.5059 36.8712C38.6117 36.886 38.7125 36.8932 38.8087 36.8932C38.8894 36.8932 38.9922 36.8879 39.1171 36.8769C39.1286 36.9502 39.1286 37.0216 39.1171 37.0911L38.9009 37.1514ZM40.3997 38.2726H39.4945C39.4772 39.2069 39.6242 39.6741 39.9356 39.6741C40.0682 39.6741 40.2037 39.5624 40.3421 39.3387C40.371 39.3718 40.3931 39.4284 40.4084 39.5093C40.2758 39.7915 40.1077 39.9324 39.9039 39.9324C39.435 39.9324 39.2005 39.4067 39.2005 38.355C39.2005 37.8567 39.2696 37.469 39.4081 37.1921C39.5465 36.916 39.7079 36.7777 39.8923 36.7777C40.0941 36.7777 40.2391 36.9114 40.3276 37.1788C40.416 37.4462 40.4602 37.7945 40.4602 38.2233C40.4411 38.2525 40.4208 38.2692 40.3997 38.2726ZM39.8866 36.9976C39.7866 36.9976 39.7017 37.0964 39.6318 37.2943C39.5615 37.4921 39.5186 37.7451 39.5033 38.0527H39.8607C40.0029 38.0527 40.1047 38.0364 40.1662 38.0033C40.1662 37.7029 40.1421 37.4598 40.0941 37.2745C40.0461 37.0899 39.977 36.9976 39.8866 36.9976ZM41.1981 36.8879L41.1925 37.4538C41.2405 37.2851 41.3074 37.1302 41.3931 36.9889C41.4783 36.8484 41.5594 36.7777 41.6363 36.7777C41.6959 36.7777 41.7487 36.7906 41.7949 36.8161C41.8102 36.8636 41.818 36.9258 41.818 37.0029C41.818 37.1237 41.8044 37.2449 41.7775 37.3657C41.7084 37.3292 41.6421 37.3106 41.5787 37.311C41.4212 37.311 41.2915 37.4576 41.1895 37.7504L41.1837 38.7124V39.5423L41.5036 39.6247C41.5114 39.6832 41.5114 39.7565 41.5036 39.8446C41.3825 39.8336 41.2443 39.8283 41.0887 39.8279C40.9716 39.8279 40.8321 39.8317 40.6706 39.8389C40.659 39.7694 40.659 39.698 40.6706 39.6247L40.8985 39.5643C40.9062 39.3627 40.91 39.1302 40.9098 38.8663V37.3603C40.9098 37.287 40.907 37.2194 40.9013 37.1571L40.6736 37.1021C40.6658 37.047 40.6658 36.9775 40.6736 36.8932C40.8062 36.875 40.9714 36.8362 41.1694 36.7777C41.1867 36.8142 41.1963 36.851 41.1981 36.8879ZM42.06 39.2126C42.1118 39.2126 42.1556 39.2449 42.1915 39.3091C42.2267 39.3729 42.2445 39.4523 42.2445 39.5476C42.2445 39.643 42.2267 39.7242 42.1915 39.7918C42.1558 39.8598 42.1128 39.894 42.063 39.894C42.013 39.894 41.9704 39.8598 41.9349 39.7918C41.8992 39.7246 41.8813 39.643 41.8813 39.5476C41.8813 39.4523 41.8986 39.3729 41.9331 39.3091C41.9678 39.2445 42.01 39.2123 42.06 39.2126ZM43.2303 39.8336C43.2187 39.7675 43.2187 39.7018 43.2303 39.6357L43.4695 39.5697C43.4773 39.4303 43.4811 39.2161 43.4811 38.9266V35.6896L43.2476 35.6345C43.2398 35.5794 43.2398 35.5118 43.2476 35.4313C43.2765 35.4351 43.3215 35.4366 43.3831 35.4366C43.506 35.4366 43.6651 35.4264 43.8603 35.4059C44.0552 35.3861 44.1671 35.3762 44.196 35.3762C44.5727 35.3762 44.8579 35.5703 45.0519 35.9589C45.246 36.3474 45.3432 36.8693 45.3432 37.5252C45.3432 38.1921 45.2519 38.7451 45.0693 39.1849C44.8868 39.6247 44.6312 39.8443 44.3026 39.8446C44.193 39.8446 44.048 39.842 43.8673 39.8367C43.6866 39.831 43.557 39.8279 43.4783 39.8279C43.3667 39.8279 43.2843 39.8298 43.2303 39.8336ZM44.193 39.5807C44.7348 39.5807 45.0059 38.9065 45.0059 37.5582C45.0059 36.9756 44.9354 36.5157 44.7944 36.1788C44.6529 35.8415 44.4496 35.6622 44.1844 35.6402C44.1613 35.6364 44.1259 35.6349 44.0777 35.6345C43.9759 35.6345 43.8836 35.6493 43.801 35.6786C43.7932 35.818 43.7894 36.0394 43.7894 36.3436V39.5643C43.8125 39.5643 43.8679 39.5674 43.9556 39.5731C44.0428 39.5784 44.1219 39.5807 44.193 39.5807ZM46.8334 38.2726H45.9282C45.9109 39.2069 46.0579 39.6741 46.3692 39.6741C46.5019 39.6741 46.6374 39.5624 46.7758 39.3387C46.8047 39.3718 46.8268 39.4284 46.8419 39.5093C46.7093 39.7915 46.5411 39.9324 46.3376 39.9324C45.8686 39.9324 45.6342 39.4067 45.6342 38.355C45.6342 37.8567 45.7033 37.469 45.8418 37.1921C45.9802 36.916 46.1415 36.7777 46.326 36.7777C46.5278 36.7777 46.6728 36.9114 46.7613 37.1788C46.8497 37.4462 46.8939 37.7945 46.8939 38.2233C46.8748 38.2525 46.8545 38.2692 46.8334 38.2726ZM46.3202 36.9976C46.2202 36.9976 46.1354 37.0964 46.0655 37.2943C45.9951 37.4921 45.9523 37.7451 45.937 38.0527H46.2943C46.4366 38.0527 46.5383 38.0364 46.5999 38.0033C46.5999 37.7029 46.5758 37.4598 46.5278 37.2745C46.4798 37.0899 46.4107 36.9976 46.3202 36.9976ZM47.5857 36.3383V39.5423L47.8192 39.6247C47.827 39.6832 47.827 39.7565 47.8192 39.8446C47.6981 39.8336 47.5742 39.8283 47.4473 39.8279C47.3588 39.8279 47.2339 39.8317 47.0726 39.8389C47.061 39.7694 47.061 39.698 47.0726 39.6247L47.3003 39.5643C47.308 39.3627 47.3118 39.1302 47.3118 38.8663V35.7169L47.0756 35.6622C47.0678 35.6072 47.0678 35.5377 47.0756 35.4534C47.2082 35.4351 47.3734 35.3964 47.5712 35.3379C47.5885 35.3744 47.5981 35.4112 47.6001 35.4477C47.5905 35.543 47.5857 35.8396 47.5857 36.3383ZM48.4793 37.7781V39.5423L48.7128 39.6247C48.7148 39.643 48.7162 39.6597 48.7174 39.6741C48.7182 39.6889 48.7186 39.7052 48.7186 39.7235C48.7186 39.7417 48.7182 39.7607 48.7174 39.7808C48.7162 39.8013 48.7146 39.8226 48.7128 39.8446C48.5917 39.8336 48.4678 39.8283 48.3409 39.8279C48.2967 39.8279 48.2435 39.8291 48.1811 39.8313C48.1186 39.8329 48.0469 39.8355 47.9662 39.8389C47.9604 39.8059 47.9576 39.7713 47.9574 39.7345C47.9574 39.7014 47.9602 39.665 47.9662 39.6247L48.1939 39.5643C48.1977 39.4618 48.2007 39.3524 48.2024 39.2366C48.2044 39.1215 48.2052 38.998 48.2054 38.8663V37.6957C48.2054 37.4538 48.2026 37.2745 48.1967 37.1571L47.969 37.1021C47.9652 37.0838 47.9632 37.0527 47.9632 37.0086C47.9632 36.9904 47.9632 36.9722 47.9632 36.9536C47.9632 36.9353 47.9652 36.9152 47.969 36.8932C48.0997 36.8784 48.265 36.84 48.4648 36.7777C48.4821 36.8142 48.4917 36.851 48.4937 36.8879C48.4841 36.9904 48.4793 37.2874 48.4793 37.7781ZM48.0584 35.8161C48.0546 35.7978 48.0526 35.7785 48.0526 35.7576C48.0526 35.7378 48.0526 35.7188 48.0526 35.7006C48.0526 35.6019 48.0744 35.5217 48.1178 35.4609C48.1608 35.4009 48.214 35.3709 48.2775 35.3709C48.3371 35.3709 48.3857 35.4047 48.4234 35.472C48.4606 35.5399 48.4793 35.6326 48.4793 35.75C48.4793 35.8453 48.4578 35.922 48.4146 35.9809C48.3712 36.0394 48.3158 36.069 48.2487 36.0686C48.2024 36.0686 48.1618 36.0466 48.1263 36.0029C48.0907 35.9589 48.068 35.8966 48.0584 35.8161ZM49.1191 39.883C49.1365 39.8978 49.1508 39.9289 49.1624 39.9764C49.099 40.0752 49.0672 40.2237 49.0674 40.4215C49.0674 40.5974 49.1096 40.7383 49.194 40.8446C49.2785 40.951 49.3881 41.0042 49.5227 41.0042C49.6612 41.0042 49.7763 40.9559 49.8685 40.8591C49.9608 40.7615 50.007 40.6251 50.007 40.4489C50.007 40.2582 49.9886 40.1185 49.9522 40.0292C49.9157 39.9392 49.8426 39.8849 49.7331 39.8663L49.194 39.7728C49.1345 39.758 49.0851 39.6984 49.0458 39.594C49.0062 39.4899 48.9865 39.3885 48.9865 39.2894L49.1797 38.6794C49.0913 38.5841 49.0247 38.4576 48.9797 38.3C48.9343 38.1424 48.9116 37.9813 48.9116 37.8165C48.9116 37.505 48.9721 37.254 49.0933 37.0637C49.2144 36.8731 49.3536 36.7781 49.5112 36.7777C49.663 36.7777 49.7966 36.8548 49.9118 37.0086C49.9213 36.5065 50.0193 36.2464 50.2058 36.2281C50.2558 36.2502 50.2807 36.3288 50.2809 36.4644C50.2809 36.5377 50.2771 36.6182 50.2693 36.7063C50.1944 36.7173 50.1329 36.7637 50.0849 36.8461C50.0368 36.9289 50.0022 37.0235 49.9811 37.1294C50.0771 37.3125 50.1253 37.5415 50.1251 37.8165C50.1251 38.1059 50.0635 38.3467 49.9406 38.5385C49.8177 38.7311 49.6745 38.8275 49.5112 38.8279C49.4247 38.8279 49.3468 38.8059 49.2777 38.7618L49.1797 39.251L49.8974 39.3885C50.009 39.4143 50.094 39.4918 50.1528 39.6213C50.2111 39.7516 50.2404 39.9214 50.2404 40.1302C50.2404 40.4968 50.1713 40.7782 50.0329 40.9745C49.8944 41.1701 49.7072 41.2681 49.4707 41.2677C49.2747 41.2677 49.1219 41.2001 49.0126 41.0646C48.903 40.929 48.8482 40.7478 48.8482 40.5203C48.8482 40.3665 48.8741 40.2301 48.9259 40.1116C48.9777 39.9924 49.0423 39.916 49.1191 39.883ZM49.1709 37.8165C49.1709 38.0292 49.2022 38.2103 49.265 38.3607C49.3273 38.5111 49.4102 38.586 49.514 38.586C49.6157 38.586 49.6994 38.5115 49.7647 38.3626C49.8301 38.2145 49.8628 38.0326 49.8628 37.8165C49.8628 37.5821 49.8307 37.3865 49.7665 37.2304C49.702 37.0751 49.6177 36.9972 49.514 36.9976C49.416 36.9976 49.3343 37.0762 49.2689 37.2339C49.2036 37.3915 49.1709 37.5856 49.1709 37.8165ZM50.5777 38.8663V36.2555C50.5777 36.0136 50.5749 35.8343 50.5691 35.7169L50.3412 35.6622C50.3335 35.6072 50.3335 35.5377 50.3412 35.4534C50.4699 35.4351 50.6342 35.3964 50.8342 35.3379C50.8516 35.3744 50.8611 35.4112 50.8631 35.4477C50.8536 35.543 50.8488 35.8396 50.8486 36.3383V37.3767C50.9908 37.0029 51.1617 36.8161 51.3617 36.8161C51.4808 36.8161 51.5826 36.873 51.6673 36.9866C51.7517 37.1002 51.7942 37.2943 51.794 37.5692V39.5423L52.0276 39.6247C52.0354 39.6832 52.0354 39.7565 52.0276 39.8446C51.9065 39.8336 51.7836 39.8283 51.6585 39.8279C51.5701 39.8279 51.4452 39.8317 51.2838 39.8389C51.2723 39.7694 51.2723 39.698 51.2838 39.6247L51.5115 39.5643C51.5193 39.3627 51.5231 39.1302 51.5231 38.8663V37.8438C51.5231 37.5875 51.5063 37.4025 51.4729 37.2889C51.439 37.1754 51.3778 37.1184 51.2896 37.1184C51.2165 37.1184 51.1402 37.1697 51.0607 37.2726C50.9808 37.3752 50.9101 37.5237 50.8486 37.7177V39.5423L51.082 39.6247C51.0898 39.6832 51.0898 39.7565 51.082 39.8446C50.9609 39.8336 50.838 39.8283 50.7131 39.8279C50.6247 39.8279 50.4998 39.8317 50.3384 39.8389C50.3269 39.7694 50.3269 39.698 50.3384 39.6247L50.5661 39.5643C50.5739 39.3627 50.5777 39.1302 50.5777 38.8663ZM52.6212 36.2281V37.014H53.0278C53.0316 37.058 53.0336 37.0911 53.0336 37.1131C53.0336 37.1461 53.0316 37.1845 53.0278 37.2285L52.6212 37.344V38.8552C52.6212 39.1264 52.6342 39.3175 52.6599 39.4291C52.686 39.5412 52.727 39.5974 52.7828 39.597C52.8328 39.597 52.9107 39.5586 53.0162 39.4819C53.0354 39.515 53.0489 39.5773 53.0565 39.6688C52.9989 39.7349 52.9551 39.7831 52.9252 39.8139C52.8955 39.8454 52.8583 39.8731 52.8133 39.8974C52.7678 39.921 52.7202 39.9327 52.6702 39.9324C52.5742 39.9324 52.4957 39.8617 52.4352 39.7204C52.3748 39.5799 52.3448 39.3646 52.3446 39.0751V37.2779L52.1428 37.2285C52.139 37.1921 52.137 37.1609 52.137 37.1351C52.137 37.1059 52.139 37.0656 52.1428 37.014C52.1966 36.9957 52.2432 36.9634 52.2824 36.9175C52.322 36.8719 52.3553 36.8081 52.382 36.7249C52.4089 36.6429 52.4294 36.5696 52.4438 36.505C52.4583 36.4412 52.4762 36.3489 52.4973 36.2281C52.5147 36.2171 52.5358 36.2118 52.5609 36.2118C52.584 36.2118 52.6041 36.2171 52.6212 36.2281ZM53.4226 39.2126C53.4744 39.2126 53.518 39.2449 53.5535 39.3091C53.5891 39.3729 53.6071 39.4523 53.6071 39.5476C53.6071 39.643 53.5891 39.7242 53.5535 39.7918C53.5182 39.8598 53.4754 39.894 53.4256 39.894C53.3756 39.894 53.3328 39.8598 53.2969 39.7918C53.2617 39.7246 53.2439 39.643 53.2439 39.5476C53.2439 39.4523 53.2613 39.3729 53.2959 39.3091C53.3306 39.2445 53.3728 39.2123 53.4226 39.2126Z" fill="#65A2C2"/>
<g clip-path="url(#clip1_407_1345)">
<g clip-path="url(#clip2_407_1345)">
<g clip-path="url(#clip3_407_1345)">
<g clip-path="url(#clip4_407_1345)">
<g clip-path="url(#clip5_407_1345)">
<g clip-path="url(#clip6_407_1345)">
<g clip-path="url(#clip7_407_1345)">
<path d="M5.99249 14.5353V15.1077H6.91442V22.788C6.93018 26.2225 7.82689 27.9473 9.60456 27.9623C10.9599 27.9623 11.7794 26.9061 12.063 24.7937C12.1481 24.1477 12.1907 23.413 12.1907 22.5897V15.1077H13.115V14.5353H10.8622V15.1077H11.7865V22.7249C11.7865 25.5705 11.2325 27.1029 10.1246 27.3223C10.0316 27.3373 9.93945 27.3448 9.84805 27.3448C8.90878 27.3448 8.31623 26.5891 8.07038 25.0777C7.96164 24.4166 7.90727 23.6098 7.90727 22.6573V15.1077H8.81974V14.5353H5.99249ZM16.103 27.1915H15.2709V22.8105C15.2709 21.4764 15.4868 20.4052 15.9186 19.5969C16.0872 19.2904 16.2291 19.1297 16.3441 19.1146C16.4749 19.1146 16.5947 19.2979 16.7034 19.6645C16.8263 20.0762 16.9414 20.3105 17.0485 20.3676C17.0958 20.3977 17.1423 20.4127 17.188 20.4127C17.4181 20.4127 17.5639 20.1994 17.6253 19.7727C17.6411 19.6855 17.649 19.5984 17.649 19.5113C17.649 18.8502 17.4725 18.4461 17.1195 18.2988C17.0422 18.2718 16.969 18.2583 16.8996 18.2583C16.4379 18.2583 16.0258 18.6324 15.6633 19.3806C15.4947 19.7321 15.3599 20.1272 15.2591 20.566L15.2141 18.389H13.5405V18.9388H14.4057V25.8709C14.4057 26.547 14.3056 26.9512 14.1055 27.0834C13.9904 27.1555 13.8021 27.1915 13.5405 27.1915V27.7414H16.3914C16.3914 27.4199 16.3339 27.2441 16.2188 27.2141C16.1873 27.1991 16.1487 27.1915 16.103 27.1915ZM21.2398 27.9623C21.9159 27.9623 22.4848 27.4785 22.9465 26.511C23.3783 25.5705 23.5942 24.3821 23.5942 22.9458C23.5942 21.3292 23.3634 20.0672 22.9016 19.1597C22.5549 18.4986 22.1278 18.1681 21.6204 18.1681C20.7804 18.1681 20.1839 18.8863 19.8309 20.3226C19.7915 20.4548 19.7608 20.587 19.7387 20.7192V13.4355H18.0059V13.9854H18.8735V25.8709C18.8735 26.547 18.7734 26.9512 18.5733 27.0834C18.4567 27.1555 18.2675 27.1915 18.0059 27.1915V27.7414H19.4621L19.5661 26.2901C19.8955 27.3027 20.3951 27.8526 21.0648 27.9397C21.1263 27.9548 21.1846 27.9623 21.2398 27.9623ZM21.2611 19.047C21.893 19.047 22.3051 19.7817 22.4974 21.251C22.5746 21.7919 22.6132 22.4079 22.6132 23.099C22.6132 25.1663 22.3201 26.508 21.7338 27.1239C21.5495 27.3162 21.3462 27.4124 21.1239 27.4124C20.5456 27.4124 20.1374 26.825 19.8994 25.6501C19.7844 25.0341 19.7269 24.322 19.7269 23.5137C19.7269 21.7408 19.9577 20.4578 20.4195 19.6645C20.6653 19.2529 20.9459 19.047 21.2611 19.047ZM28.5679 27.9623C29.1605 27.9623 29.4875 27.2802 29.549 25.916C29.5568 25.8259 29.5608 25.7447 29.5608 25.6726L29.2606 25.6501C29.207 26.7228 29.0565 27.2652 28.8091 27.2772C28.6089 27.2501 28.5057 26.87 28.4994 26.1369V21.4899C28.4994 19.3926 27.9486 18.2853 26.847 18.1681C26.7777 18.1681 26.7083 18.1681 26.639 18.1681C25.7785 18.1681 25.2017 18.5497 24.9086 19.3129C24.8156 19.5623 24.7691 19.8117 24.7691 20.0611C24.7691 20.5149 24.881 20.7793 25.1048 20.8544C25.1426 20.8694 25.1812 20.8769 25.2206 20.8769C25.3971 20.8769 25.5279 20.6636 25.613 20.2369C25.7202 19.6931 25.7935 19.37 25.8329 19.2679C25.9779 18.9013 26.2048 18.718 26.5137 18.718C27.237 18.8051 27.6098 19.5608 27.6318 20.9851V22.3733C25.8242 22.3733 24.7896 23.0915 24.528 24.5278C24.4823 24.8072 24.4594 25.1077 24.4594 25.4292C24.4594 26.544 24.7171 27.3072 25.2324 27.7189C25.4405 27.8812 25.6595 27.9623 25.8896 27.9623C26.4506 27.9623 26.9242 27.5957 27.3103 26.8625C27.449 26.5831 27.5522 26.2886 27.62 25.9791C27.713 27.2862 28.029 27.9473 28.5679 27.9623ZM26.2702 27.0834C25.8006 27.0834 25.5122 26.6357 25.405 25.7402C25.3814 25.5329 25.3695 25.3045 25.3695 25.0551C25.3695 24.0726 25.6658 23.4491 26.2584 23.1846C26.5736 23.0524 27.0314 22.9788 27.6318 22.9638V24.7261C27.5168 25.7387 27.2363 26.4509 26.7903 26.8625C26.6138 27.0098 26.4404 27.0834 26.2702 27.0834ZM32.2155 27.1915H31.6954V22.4364C31.719 21.0723 31.9728 20.0897 32.4566 19.4887C32.6646 19.2393 32.8766 19.1146 33.0925 19.1146C33.5621 19.1146 33.8812 19.5323 34.0499 20.3676C34.1192 20.7072 34.1539 21.0888 34.1539 21.5125V25.8709C34.1539 26.547 34.0538 26.9512 33.8537 27.0834C33.7386 27.1555 33.5503 27.1915 33.2887 27.1915V27.7414H35.8843C35.8843 27.4199 35.8267 27.2441 35.7117 27.2141C35.6818 27.1991 35.6431 27.1915 35.5959 27.1915H35.0191V21.7333C35.0191 20.267 34.7535 19.2183 34.2224 18.5873C33.9766 18.3078 33.711 18.1681 33.4258 18.1681C32.8569 18.1681 32.388 18.6008 32.0193 19.4662C31.8806 19.8027 31.7687 20.1768 31.6836 20.5885L31.6363 18.389H29.9626V18.9388H30.8302V25.8709C30.8302 26.547 30.7301 26.9512 30.53 27.0834C30.4134 27.1555 30.2242 27.1915 29.9626 27.1915V27.7414H32.5039C32.5039 27.4199 32.4455 27.2441 32.3289 27.2141C32.299 27.1991 32.2612 27.1915 32.2155 27.1915ZM42.0139 17.5281C42.0139 16.4133 41.7365 15.5855 41.1818 15.0446C40.8209 14.7051 40.3867 14.5353 39.8793 14.5353H36.6336V15.1077H37.5579V27.169H36.6336V27.7414H39.9124C40.9052 27.7414 41.6325 27.1405 42.0943 25.9385C42.3322 25.3075 42.4512 24.6179 42.4512 23.8697C42.4512 22.6949 42.1786 21.7844 41.6333 21.1384C41.3796 20.8589 41.0872 20.6606 40.7563 20.5434C41.3095 20.1468 41.69 19.4797 41.8981 18.5422C41.9753 18.1907 42.0139 17.8526 42.0139 17.5281ZM38.5508 15.1077H39.6003C40.393 15.1077 40.8438 15.7763 40.9525 17.1134C40.9667 17.3027 40.9738 17.4995 40.9738 17.7039C40.9738 18.6594 40.7776 19.3791 40.3852 19.8628C40.1551 20.1423 39.8864 20.282 39.5791 20.282H38.5508V15.1077ZM38.5508 20.8769H39.7965C40.4978 20.8769 40.9675 21.4419 41.2054 22.5717C41.2984 22.9803 41.3449 23.4265 41.3449 23.9103C41.3449 25.0401 41.1519 25.9205 40.7658 26.5515C40.512 26.9632 40.2087 27.169 39.8556 27.169H38.5508V20.8769ZM47.484 27.9623C48.0766 27.9623 48.4036 27.2802 48.465 25.916C48.4729 25.8259 48.4769 25.7447 48.4769 25.6726L48.1766 25.6501C48.1231 26.7228 47.9733 27.2652 47.7275 27.2772C47.5274 27.2501 47.4233 26.87 47.4155 26.1369V21.4899C47.4155 19.3926 46.8655 18.2853 45.7654 18.1681C45.6961 18.1681 45.6268 18.1681 45.5574 18.1681C44.6954 18.1681 44.1178 18.5497 43.8247 19.3129C43.7333 19.5623 43.6876 19.8117 43.6876 20.0611C43.6876 20.5149 43.7987 20.7793 44.0209 20.8544C44.0603 20.8694 44.0989 20.8769 44.1367 20.8769C44.3132 20.8769 44.444 20.6636 44.5291 20.2369C44.6363 19.6931 44.7096 19.37 44.749 19.2679C44.8955 18.9013 45.1225 18.718 45.4298 18.718C46.1531 18.8051 46.5266 19.5608 46.5503 20.9851V22.3733C44.7411 22.3733 43.7057 23.0915 43.4441 24.5278C43.3984 24.8072 43.3755 25.1077 43.3755 25.4292C43.3755 26.544 43.6332 27.3072 44.1485 27.7189C44.3565 27.8812 44.5756 27.9623 44.8057 27.9623C45.3683 27.9623 45.8419 27.5957 46.2264 26.8625C46.3651 26.5831 46.4691 26.2886 46.5384 25.9791C46.6299 27.2862 46.945 27.9473 47.484 27.9623ZM45.1863 27.0834C44.7182 27.0834 44.4298 26.6357 44.3211 25.7402C44.299 25.5329 44.288 25.3045 44.288 25.0551C44.288 24.0726 44.5835 23.4491 45.1745 23.1846C45.4912 23.0524 45.9498 22.9788 46.5503 22.9638V24.7261C46.4336 25.7387 46.1523 26.4509 45.7063 26.8625C45.5298 27.0098 45.3565 27.0834 45.1863 27.0834ZM51.94 27.169H49.8621L52.9896 18.7405V18.2763H49.0891L48.9851 21.1384H49.1577L49.4342 19.9304C49.6029 19.2243 49.8487 18.8637 50.1718 18.8487H52.0322L48.7889 27.2592V27.7414H53.0014L53.0345 24.4196H52.8738L52.7343 25.6275C52.6508 26.4358 52.4546 26.9271 52.1457 27.1014C52.0779 27.1465 52.0093 27.169 51.94 27.169ZM57.9184 27.9623C58.5109 27.9623 58.8379 27.2802 58.8994 25.916C58.9073 25.8259 58.9112 25.7447 58.9112 25.6726L58.611 25.6501C58.5558 26.7228 58.4053 27.2652 58.1595 27.2772C57.9593 27.2501 57.8553 26.87 57.8474 26.1369V21.4899C57.8474 19.3926 57.2974 18.2853 56.1974 18.1681C56.1281 18.1681 56.0587 18.1681 55.9894 18.1681C55.1274 18.1681 54.5506 18.5497 54.259 19.3129C54.166 19.5623 54.1195 19.8117 54.1195 20.0611C54.1195 20.5149 54.2314 20.7793 54.4552 20.8544C54.493 20.8694 54.5317 20.8769 54.571 20.8769C54.7476 20.8769 54.8784 20.6636 54.9635 20.2369C55.0706 19.6931 55.1431 19.37 55.1809 19.2679C55.3275 18.9013 55.5544 18.718 55.8617 18.718C56.5851 18.8051 56.9586 19.5608 56.9822 20.9851V22.3733C55.1746 22.3733 54.14 23.0915 53.8784 24.5278C53.8311 24.8072 53.8075 25.1077 53.8075 25.4292C53.8075 26.544 54.0652 27.3072 54.5805 27.7189C54.7885 27.8812 55.0084 27.9623 55.24 27.9623C55.8011 27.9623 56.2739 27.5957 56.6584 26.8625C56.7971 26.5831 56.9011 26.2886 56.9704 25.9791C57.0634 27.2862 57.3794 27.9473 57.9184 27.9623ZM55.6206 27.0834C55.151 27.0834 54.8626 26.6357 54.7554 25.7402C54.7318 25.5329 54.72 25.3045 54.72 25.0551C54.72 24.0726 55.0163 23.4491 55.6088 23.1846C55.924 23.0524 56.3818 22.9788 56.9822 22.9638V24.7261C56.8672 25.7387 56.5867 26.4509 56.1407 26.8625C55.9626 27.0098 55.7893 27.0834 55.6206 27.0834ZM63.4807 27.9623C64.0732 27.9623 64.4002 27.2802 64.4617 25.916C64.4696 25.8259 64.4735 25.7447 64.4735 25.6726L64.1733 25.6501C64.1197 26.7228 63.9692 27.2652 63.7218 27.2772C63.5216 27.2501 63.4184 26.87 63.4121 26.1369V21.4899C63.4121 19.3926 62.8613 18.2853 61.7597 18.1681C61.6904 18.1681 61.621 18.1681 61.5517 18.1681C60.6912 18.1681 60.1144 18.5497 59.8213 19.3129C59.7283 19.5623 59.6818 19.8117 59.6818 20.0611C59.6818 20.5149 59.7937 20.7793 60.0175 20.8544C60.0553 20.8694 60.094 20.8769 60.1334 20.8769C60.3099 20.8769 60.4407 20.6636 60.5258 20.2369C60.6329 19.6931 60.7062 19.37 60.7456 19.2679C60.8906 18.9013 61.1175 18.718 61.4264 18.718C62.1498 18.8051 62.5225 19.5608 62.5446 20.9851V22.3733C60.7369 22.3733 59.7023 23.0915 59.4407 24.5278C59.395 24.8072 59.3722 25.1077 59.3722 25.4292C59.3722 26.544 59.6298 27.3072 60.1452 27.7189C60.3532 27.8812 60.5723 27.9623 60.8023 27.9623C61.365 27.9623 61.8385 27.5957 62.2231 26.8625C62.3617 26.5831 62.465 26.2886 62.5327 25.9791C62.6257 27.2862 62.9417 27.9473 63.4807 27.9623ZM61.1829 27.0834C60.7133 27.0834 60.4249 26.6357 60.3177 25.7402C60.2941 25.5329 60.2823 25.3045 60.2823 25.0551C60.2823 24.0726 60.5786 23.4491 61.1711 23.1846C61.4879 23.0524 61.9457 22.9788 62.5446 22.9638V24.7261C62.4295 25.7387 62.149 26.4509 61.703 26.8625C61.5265 27.0098 61.3531 27.0834 61.1829 27.0834ZM67.4615 27.1915H66.6318V22.8105C66.6318 21.4764 66.8469 20.4052 67.2771 19.5969C67.4457 19.2904 67.5884 19.1297 67.705 19.1146C67.8358 19.1146 67.9548 19.2979 68.0619 19.6645C68.1849 20.0762 68.3007 20.3105 68.4094 20.3676C68.4551 20.3977 68.5008 20.4127 68.5465 20.4127C68.7782 20.4127 68.9248 20.1994 68.9862 19.7727C69.0004 19.6855 69.0075 19.5984 69.0075 19.5113C69.0075 18.8502 68.831 18.4461 68.478 18.2988C68.4008 18.2718 68.3275 18.2583 68.2582 18.2583C67.7964 18.2583 67.3851 18.6324 67.0242 19.3806C66.854 19.7321 66.7192 20.1272 66.62 20.566L66.5727 18.389H64.899V18.9388H65.7642V25.8709C65.7642 26.547 65.6641 26.9512 65.464 27.0834C65.3489 27.1555 65.1606 27.1915 64.899 27.1915V27.7414H67.7499C67.7499 27.4199 67.6924 27.2441 67.5773 27.2141C67.5458 27.1991 67.5072 27.1915 67.4615 27.1915Z" fill="#65A2C2"/>

</g>
</g>
</g>
</g>
</g>
</g>
</g>
</g>
<defs>
<clipPath id="clip0_381_3292">
<rect width="79.6958" height="39.8548" fill="white" transform="translate(0.1521 0.0726318)"/>
</clipPath>
<clipPath id="clip1_381_3292">
<rect width="79.6958" height="39.8548" fill="white" transform="translate(0.1521 0.0726318)"/>
</clipPath>
<clipPath id="clip2_381_3292">
<rect width="67.2311" height="14.036" fill="white" transform="translate(6.3844 12.9821)"/>
</clipPath>
<clipPath id="clip3_381_3292">
<rect width="67.2311" height="14.036" fill="white" transform="translate(6.3844 12.9821)"/>
</clipPath>
<clipPath id="clip4_381_3292">
<rect width="67.2311" height="14.036" fill="white" transform="translate(6.3844 12.9821)"/>
</clipPath>
<clipPath id="clip5_381_3292">
<rect width="67.2311" height="14.036" fill="white" transform="translate(6.3844 12.9821)"/>
</clipPath>
<clipPath id="clip6_381_3292">
<rect width="67.2311" height="14.036" fill="white" transform="translate(6.3844 12.9821)"/>
</clipPath>
<clipPath id="clip7_381_3292">
<rect width="67.2311" height="14.036" fill="white" transform="translate(6.3844 12.9821)"/>
</clipPath>
<clipPath id="clip8_381_3292">
<rect width="67.2311" height="14.036" fill="white" transform="translate(6.3844 12.9821)"/>
<clipPath id="clip0_407_1345">
<rect width="74.7148" height="41.2482" fill="white" transform="translate(0.142578 0.0742188)"/>
</clipPath>
<clipPath id="clip1_407_1345">
<rect width="63.0292" height="14.5267" fill="white" transform="translate(5.98541 13.4355)"/>
</clipPath>
<clipPath id="clip2_407_1345">
<rect width="63.0292" height="14.5267" fill="white" transform="translate(5.98541 13.4355)"/>
</clipPath>
<clipPath id="clip3_407_1345">
<rect width="63.0292" height="14.5267" fill="white" transform="translate(5.98541 13.4355)"/>
</clipPath>
<clipPath id="clip4_407_1345">
<rect width="63.0292" height="14.5267" fill="white" transform="translate(5.98541 13.4355)"/>
</clipPath>
<clipPath id="clip5_407_1345">
<rect width="63.0292" height="14.5267" fill="white" transform="translate(5.98541 13.4355)"/>
</clipPath>
<clipPath id="clip6_407_1345">
<rect width="63.0292" height="14.5267" fill="white" transform="translate(5.98541 13.4355)"/>
</clipPath>
<clipPath id="clip7_407_1345">
<rect width="63.0292" height="14.5267" fill="white" transform="translate(5.98541 13.4355)"/>

</clipPath>
</defs>
</svg>
