<svg width="24" height="24" viewBox="0 0 24 24" fill="none" xmlns="http://www.w3.org/2000/svg">
<path d="M5 19.0006V8.10059L3.242 4.23559L4.158 3.80859L6.085 8.05059H17.915L19.842 3.80859L20.758 4.23559L19 8.10059V19.0006H5ZM10 12.5006H14C14.142 12.5006 14.2607 12.4526 14.356 12.3566C14.452 12.2606 14.5 12.1416 14.5 11.9996C14.5 11.8576 14.452 11.7389 14.356 11.6436C14.2607 11.5483 14.142 11.5006 14 11.5006H10C9.858 11.5006 9.73934 11.5486 9.644 11.6446C9.548 11.7406 9.5 11.8596 9.5 12.0016C9.5 12.1436 9.548 12.2623 9.644 12.3576C9.74 12.4529 9.85867 12.5006 10 12.5006ZM6 18.0006H18V9.05059H6V18.0006Z" fill="#791EEC"/>
</svg>
