<svg width="49" height="48" viewBox="0 0 49 48" fill="none" xmlns="http://www.w3.org/2000/svg">
<circle cx="24.9236" cy="24" r="24" fill="#B36FA8"/>
<path d="M16.9236 32V19.1L14.9736 14.85L16.7736 14L19.1236 19.05H30.7236L33.0736 14L34.8736 14.85L32.9236 19.1V32H16.9236ZM22.9236 25H26.9236C27.2069 25 27.4446 24.904 27.6366 24.712C27.8286 24.52 27.9242 24.2827 27.9236 24C27.9236 23.7167 27.8276 23.4793 27.6356 23.288C27.4436 23.0967 27.2062 23.0007 26.9236 23H22.9236C22.6402 23 22.4029 23.096 22.2116 23.288C22.0202 23.48 21.9242 23.7173 21.9236 24C21.9236 24.2833 22.0196 24.521 22.2116 24.713C22.4036 24.905 22.6409 25.0007 22.9236 25ZM18.9236 30H30.9236V21.05H18.9236V30Z" fill="#F0F9FF"/>
</svg>
