<svg width="41" height="32" viewBox="0 0 41 32" fill="none" xmlns="http://www.w3.org/2000/svg">
<path d="M35.2937 9.33412C35.005 8.93494 34.5915 8.60229 34.0936 8.36861C33.5957 8.13493 33.0304 8.0082 32.4528 8.00078H11.0626L10.0934 4.98745C9.99545 4.69657 9.77697 4.44071 9.47353 4.26154C9.17008 4.08238 8.79954 3.99047 8.42227 4.00078H5.08005C4.63684 4.00078 4.21179 4.14126 3.89839 4.39131C3.585 4.64135 3.40894 4.98049 3.40894 5.33412C3.40894 5.68774 3.585 6.02688 3.89839 6.27692C4.21179 6.52697 4.63684 6.66745 5.08005 6.66745H7.15222L11.7645 20.3475C11.8624 20.6383 12.0809 20.8942 12.3843 21.0734C12.6878 21.2525 13.0583 21.3444 13.4356 21.3341H28.4756C28.7842 21.3334 29.0865 21.2645 29.349 21.135C29.6116 21.0056 29.824 20.8207 29.9629 20.6008L35.4441 11.8541C35.6817 11.4568 35.7923 11.0187 35.7661 10.579C35.7398 10.1393 35.5776 9.71162 35.2937 9.33412ZM27.4395 18.6674H14.7056L11.9817 10.6674H32.4528L27.4395 18.6674Z" fill="#41ADE3"/>
<path d="M12.6001 28C13.9844 28 15.1067 27.1046 15.1067 26C15.1067 24.8954 13.9844 24 12.6001 24C11.2157 24 10.0934 24.8954 10.0934 26C10.0934 27.1046 11.2157 28 12.6001 28Z" fill="#41ADE3"/>
<path d="M29.3112 28C30.6956 28 31.8178 27.1046 31.8178 26C31.8178 24.8954 30.6956 24 29.3112 24C27.9268 24 26.8045 24.8954 26.8045 26C26.8045 27.1046 27.9268 28 29.3112 28Z" fill="#41ADE3"/>
</svg>
