<svg width="24" height="24" viewBox="0 0 24 24" fill="none" xmlns="http://www.w3.org/2000/svg">
<path d="M2 4.72727C2 3.22104 3.22104 2 4.72727 2H15.0303C16.5365 2 17.7576 3.22104 17.7576 4.72727V14.1212H22V18.0606C22 20.2362 20.2362 22 18.0606 22H5.93939C3.76372 22 2 20.2362 2 18.0606V4.72727ZM17.7576 15.9394V20.1818H18.0606C19.2321 20.1818 20.1818 19.2321 20.1818 18.0606V15.9394H17.7576ZM15.9394 20.1818V4.72727C15.9394 4.2252 15.5324 3.81818 15.0303 3.81818H4.72727C4.2252 3.81818 3.81818 4.2252 3.81818 4.72727V18.0606C3.81818 19.2321 4.76788 20.1818 5.93939 20.1818H15.9394Z" fill="#747474"/>
<path d="M5 7.97059C5 7.43455 5.4797 7 6.07143 7H13.9286C14.5203 7 15 7.43455 15 7.97059C15 8.50664 14.5203 8.94118 13.9286 8.94118H6.07143C5.4797 8.94118 5 8.50664 5 7.97059ZM5 12.5C5 11.964 5.4797 11.5294 6.07143 11.5294H13.9286C14.5203 11.5294 15 11.964 15 12.5C15 13.036 14.5203 13.4706 13.9286 13.4706H6.07143C5.4797 13.4706 5 13.036 5 12.5ZM5 17.0294C5 16.4934 5.4797 16.0588 6.07143 16.0588H9.64285C10.2346 16.0588 10.7143 16.4934 10.7143 17.0294C10.7143 17.5654 10.2346 18 9.64285 18H6.07143C5.4797 18 5 17.5654 5 17.0294Z" fill="#747474"/>
</svg>
