<svg width="28" height="29" viewBox="0 0 28 29" fill="none" xmlns="http://www.w3.org/2000/svg">
<path d="M4.9714 3.81375C6.167 3.14455 7.6916 2.98775 9.149 3.35735C9.8588 3.53655 10.465 3.99715 10.829 4.63135L12.0862 6.82375C12.5343 7.60536 12.6637 8.52967 12.4475 9.40429C12.2313 10.2789 11.6862 11.0365 10.9256 11.5194L9.8196 12.2222C9.3618 12.512 9.1938 12.9558 9.2988 13.3071C9.674 14.5644 10.5042 15.9588 11.417 16.9136C11.6886 17.1992 12.187 17.2664 12.6742 16.9822L13.286 16.6252C13.6874 16.3912 14.1315 16.2394 14.5921 16.1789C15.0528 16.1183 15.521 16.15 15.9693 16.2723C16.4176 16.3945 16.837 16.6048 17.2032 16.8908C17.5694 17.1769 17.8749 17.533 18.102 17.9384L19.229 19.9474C19.5972 20.6054 19.6574 21.3908 19.397 22.0978C18.8776 23.502 17.8766 24.6346 16.646 25.2016C15.3958 25.777 13.9328 25.7532 12.6084 24.8698C10.5112 23.4726 7.9842 21.1206 5.6952 17.1978C3.3768 13.2218 2.793 9.83795 2.8588 7.31515C2.9008 5.70095 3.7548 4.49415 4.9714 3.81375ZM21 3.89355C21 3.7079 20.9263 3.52985 20.795 3.39857C20.6637 3.2673 20.4857 3.19355 20.3 3.19355C20.1143 3.19355 19.9363 3.2673 19.805 3.39857C19.6737 3.52985 19.6 3.7079 19.6 3.89355V7.39495H16.1C15.9143 7.39495 15.7363 7.4687 15.605 7.59998C15.4737 7.73125 15.4 7.9093 15.4 8.09495C15.4 8.2806 15.4737 8.45865 15.605 8.58992C15.7363 8.7212 15.9143 8.79495 16.1 8.79495H19.6V12.295C19.6 12.4806 19.6737 12.6587 19.805 12.7899C19.9363 12.9212 20.1143 12.995 20.3 12.995C20.4857 12.995 20.6637 12.9212 20.795 12.7899C20.9263 12.6587 21 12.4806 21 12.295V8.79495H24.5C24.6856 8.79495 24.8637 8.7212 24.995 8.58992C25.1262 8.45865 25.2 8.2806 25.2 8.09495C25.2 7.9093 25.1262 7.73125 24.995 7.59998C24.8637 7.4687 24.6856 7.39495 24.5 7.39495H21V3.89355Z" fill="#7DC8EF"/>
</svg>
