<svg width="40" height="40" viewBox="0 0 40 40" fill="none" xmlns="http://www.w3.org/2000/svg">
<path d="M29.5599 13.0137V6.77344H14.3634V13.0137H12.4639V4.69336H31.4595V13.0137H29.5599ZM32.6277 20.294C33.1659 20.294 33.6174 20.0943 33.9821 19.6949C34.3468 19.2955 34.5285 18.8019 34.5273 18.2139C34.526 17.6259 34.3443 17.1316 33.9821 16.7308C33.6199 16.33 33.1684 16.1303 32.6277 16.1317C32.087 16.1331 31.6361 16.3328 31.2752 16.7308C30.9143 17.1288 30.7319 17.6232 30.7281 18.2139C30.7243 18.8046 30.9067 19.2983 31.2752 19.6949C31.6437 20.0915 32.0933 20.2912 32.6277 20.294ZM29.5599 34.6133V25.1739H14.3634V34.6133H29.5599ZM31.4595 36.6934H12.4639V28.373H5.96167V17.1739C5.96167 15.9951 6.32702 15.0071 7.05772 14.2097C7.78841 13.4124 8.68944 13.013 9.76079 13.0116H34.1625C35.239 13.0116 36.1413 13.411 36.8694 14.2097C37.5976 15.0085 37.9617 15.9958 37.9617 17.1718V28.373H31.4595V36.6934ZM36.0621 26.2929V17.1739C36.0621 16.5845 35.8804 16.0901 35.5169 15.6908C35.1535 15.2914 34.702 15.0917 34.1625 15.0917H9.76079C9.22258 15.0917 8.77175 15.2914 8.4083 15.6908C8.04485 16.0901 7.8625 16.5845 7.86123 17.1739V26.2929H12.4639V23.0938H31.4595V26.2929H36.0621Z" fill="#1F5BB3"/>
</svg>
