<svg width="32" height="32" viewBox="0 0 32 32" fill="none" xmlns="http://www.w3.org/2000/svg">
<path fill-rule="evenodd" clip-rule="evenodd" d="M16 15C16.7956 15 17.5587 14.6839 18.1213 14.1213C18.6839 13.5587 19 12.7956 19 12C19 11.2044 18.6839 10.4413 18.1213 9.87868C17.5587 9.31607 16.7956 9 16 9C15.2044 9 14.4413 9.31607 13.8787 9.87868C13.3161 10.4413 13 11.2044 13 12C13 12.7956 13.3161 13.5587 13.8787 14.1213C14.4413 14.6839 15.2044 15 16 15ZM9 24C9 23.0807 9.18106 22.1705 9.53284 21.3212C9.88463 20.4719 10.4002 19.7003 11.0503 19.0503C11.7003 18.4002 12.4719 17.8846 13.3212 17.5328C14.1705 17.1811 15.0807 17 16 17C16.9193 17 17.8295 17.1811 18.6788 17.5328C19.5281 17.8846 20.2997 18.4002 20.9497 19.0503C21.5998 19.7003 22.1154 20.4719 22.4672 21.3212C22.8189 22.1705 23 23.0807 23 24H9Z" fill="#5B6871"/>
</svg>
