<svg width="25" height="25" viewBox="0 0 25 25" fill="none" xmlns="http://www.w3.org/2000/svg">
<path d="M15.6 14.8574H14.81L14.53 14.5874C15.5439 13.4114 16.1011 11.9101 16.1 10.3574C16.1 9.07185 15.7188 7.81514 15.0045 6.74622C14.2903 5.6773 13.2751 4.84418 12.0874 4.35221C10.8997 3.86024 9.59277 3.73152 8.33189 3.98232C7.07101 4.23312 5.91283 4.85219 5.00378 5.76123C4.09474 6.67027 3.47568 7.82846 3.22487 9.08934C2.97407 10.3502 3.10279 11.6571 3.59476 12.8449C4.08673 14.0326 4.91985 15.0477 5.98877 15.762C7.05769 16.4762 8.3144 16.8574 9.59998 16.8574C11.21 16.8574 12.69 16.2674 13.83 15.2874L14.1 15.5674V16.3574L19.1 21.3474L20.59 19.8574L15.6 14.8574ZM9.59998 14.8574C7.10998 14.8574 5.09998 12.8474 5.09998 10.3574C5.09998 7.86742 7.10998 5.85742 9.59998 5.85742C12.09 5.85742 14.1 7.86742 14.1 10.3574C14.1 12.8474 12.09 14.8574 9.59998 14.8574Z" fill="#595959"/>
</svg>
