<svg width="56" height="56" viewBox="0 0 56 56" fill="none" xmlns="http://www.w3.org/2000/svg">
<g filter="url(#filter0_d_353_906)">
<circle cx="28" cy="24" r="24" fill="#AC5EEA"/>
<g filter="url(#filter1_dd_353_906)">
<g clip-path="url(#clip0_353_906)">
<path d="M36.3109 30.4066C35.2398 28.5267 33.5673 27.0619 31.5625 26.248C32.5594 25.5003 33.2959 24.4579 33.6674 23.2684C34.039 22.0789 34.0269 20.8027 33.6328 19.6204C33.2387 18.4382 32.4827 17.4099 31.4717 16.6813C30.4608 15.9526 29.2462 15.5605 28 15.5605C26.7538 15.5605 25.5392 15.9526 24.5283 16.6813C23.5173 17.4099 22.7613 18.4382 22.3672 19.6204C21.9731 20.8027 21.961 22.0789 22.3326 23.2684C22.7041 24.4579 23.4406 25.5003 24.4375 26.248C22.4328 27.0619 20.7602 28.5267 19.6891 30.4066C19.6227 30.5134 19.5785 30.6323 19.559 30.7565C19.5395 30.8807 19.5452 31.0075 19.5757 31.1294C19.6062 31.2513 19.661 31.3658 19.7366 31.4662C19.8123 31.5665 19.9074 31.6506 20.0162 31.7135C20.125 31.7764 20.2453 31.8167 20.3701 31.8322C20.4948 31.8476 20.6213 31.8378 20.7422 31.8033C20.8631 31.7689 20.9758 31.7105 21.0736 31.6316C21.1714 31.5527 21.2524 31.4549 21.3117 31.3441C22.7273 28.8973 25.2273 27.4379 28 27.4379C30.7727 27.4379 33.2727 28.898 34.6883 31.3441C34.8168 31.5508 35.0207 31.6994 35.2568 31.7585C35.4928 31.8176 35.7427 31.7825 35.9534 31.6608C36.1641 31.539 36.3192 31.3401 36.386 31.1061C36.4527 30.872 36.4258 30.6212 36.3109 30.4066ZM23.9375 21.5004C23.9375 20.6969 24.1758 19.9115 24.6222 19.2434C25.0686 18.5753 25.703 18.0546 26.4454 17.7471C27.1877 17.4396 28.0045 17.3592 28.7926 17.516C29.5806 17.6727 30.3045 18.0596 30.8726 18.6278C31.4408 19.1959 31.8277 19.9198 31.9844 20.7078C32.1412 21.4959 32.0607 22.3127 31.7533 23.055C31.4458 23.7974 30.9251 24.4318 30.257 24.8782C29.5889 25.3246 28.8035 25.5629 28 25.5629C26.9229 25.5617 25.8904 25.1332 25.1288 24.3716C24.3672 23.61 23.9387 22.5775 23.9375 21.5004Z" fill="#F0F9FF"/>
</g>
</g>
</g>
<defs>
<filter id="filter0_d_353_906" x="0" y="0" width="56" height="56" filterUnits="userSpaceOnUse" color-interpolation-filters="sRGB">
<feFlood flood-opacity="0" result="BackgroundImageFix"/>
<feColorMatrix in="SourceAlpha" type="matrix" values="0 0 0 0 0 0 0 0 0 0 0 0 0 0 0 0 0 0 127 0" result="hardAlpha"/>
<feOffset dy="4"/>
<feGaussianBlur stdDeviation="2"/>
<feComposite in2="hardAlpha" operator="out"/>
<feColorMatrix type="matrix" values="0 0 0 0 0 0 0 0 0 0 0 0 0 0 0 0 0 0 0.25 0"/>
<feBlend mode="normal" in2="BackgroundImageFix" result="effect1_dropShadow_353_906"/>
<feBlend mode="normal" in="SourceGraphic" in2="effect1_dropShadow_353_906" result="shape"/>
</filter>
<filter id="filter1_dd_353_906" x="12" y="12" width="32" height="32" filterUnits="userSpaceOnUse" color-interpolation-filters="sRGB">
<feFlood flood-opacity="0" result="BackgroundImageFix"/>
<feColorMatrix in="SourceAlpha" type="matrix" values="0 0 0 0 0 0 0 0 0 0 0 0 0 0 0 0 0 0 127 0" result="hardAlpha"/>
<feOffset dy="4"/>
<feGaussianBlur stdDeviation="2"/>
<feComposite in2="hardAlpha" operator="out"/>
<feColorMatrix type="matrix" values="0 0 0 0 0 0 0 0 0 0 0 0 0 0 0 0 0 0 0.25 0"/>
<feBlend mode="normal" in2="BackgroundImageFix" result="effect1_dropShadow_353_906"/>
<feColorMatrix in="SourceAlpha" type="matrix" values="0 0 0 0 0 0 0 0 0 0 0 0 0 0 0 0 0 0 127 0" result="hardAlpha"/>
<feOffset dy="4"/>
<feGaussianBlur stdDeviation="2"/>
<feComposite in2="hardAlpha" operator="out"/>
<feColorMatrix type="matrix" values="0 0 0 0 0 0 0 0 0 0 0 0 0 0 0 0 0 0 0.25 0"/>
<feBlend mode="normal" in2="effect1_dropShadow_353_906" result="effect2_dropShadow_353_906"/>
<feBlend mode="normal" in="SourceGraphic" in2="effect2_dropShadow_353_906" result="shape"/>
</filter>
<clipPath id="clip0_353_906">
<rect width="20" height="20" fill="white" transform="translate(18 14)"/>
</clipPath>
</defs>
</svg>
