<svg width="21" height="14" viewBox="0 0 21 14" fill="none" xmlns="http://www.w3.org/2000/svg">
<path d="M14.0749 4.29697L19.3596 4.85415C19.7972 4.89883 20.165 5.1196 20.3047 5.42185C20.4445 5.72673 20.3305 6.05788 20.0142 6.28391L16.1822 8.96997L17.0869 12.823C17.1604 13.1383 16.9802 13.459 16.6125 13.6456C16.2484 13.8322 15.7666 13.8559 15.3731 13.706L10.6511 11.9057L5.93279 13.706C5.53561 13.8559 5.05385 13.8322 4.68977 13.6456C4.32569 13.459 4.14181 13.1383 4.21904 12.823L5.12372 8.96997L1.29096 6.28391C0.974319 6.05788 0.861786 5.72673 1.0008 5.42185C1.13944 5.1196 1.5061 4.89883 1.94704 4.85415L7.22729 4.29697L9.59565 0.819025C9.79056 0.529498 10.2024 0.345703 10.6511 0.345703C11.1035 0.345703 11.5153 0.529498 11.7103 0.819025L14.0749 4.29697Z" fill="#FFC831"/>
</svg>
