<svg width="36" height="26" viewBox="0 0 36 26" fill="none" xmlns="http://www.w3.org/2000/svg">
<path d="M34.288 9.05C33.4072 7.38659 32.1303 5.87533 30.528 4.6C28.9296 3.32159 27.0355 2.30276 24.9507 1.6C22.7848 0.86875 20.4896 0.5 18.12 0.5C15.7504 0.5 13.4553 0.86875 11.2894 1.6C9.20456 2.30276 7.31045 3.32159 5.71203 4.6C4.10976 5.87533 2.83283 7.38659 1.95203 9.05C1.03553 10.7781 0.573364 12.6094 0.573364 14.5C0.573364 18.6469 2.85678 22.5531 6.83611 25.2219L6.9027 25.2656C7.12986 25.4156 7.41578 25.5 7.70953 25.5H28.5344C28.8282 25.5 29.1141 25.4156 29.3413 25.2656L29.4079 25.2219C33.3833 22.5531 35.6667 18.6469 35.6667 14.5C35.6667 12.6094 35.2006 10.7781 34.288 9.05ZM27.8882 23.125H8.35186C6.83845 22.0362 5.62887 20.7057 4.80163 19.2198C3.97438 17.734 3.54796 16.1259 3.55003 14.5C3.55003 11.3937 5.06578 8.475 7.8192 6.28125C10.5726 4.08437 14.2308 2.875 18.12 2.875C22.0132 2.875 25.6714 4.08437 28.4209 6.28125C31.1743 8.47813 32.69 11.3969 32.69 14.5C32.69 17.8 30.9471 20.9219 27.8882 23.125ZM22.4871 10.1719C22.4282 10.1253 22.3487 10.0992 22.2658 10.0992C22.1829 10.0992 22.1034 10.1253 22.0445 10.1719L18.7349 12.8125C18.0025 12.6562 17.1918 12.8063 16.616 13.2656C16.4121 13.428 16.2503 13.6209 16.1399 13.8333C16.0295 14.0456 15.9727 14.2732 15.9727 14.5031C15.9727 14.733 16.0295 14.9606 16.1399 15.173C16.2503 15.3853 16.4121 15.5782 16.616 15.7406C16.8196 15.9033 17.0613 16.0324 17.3275 16.1205C17.5936 16.2086 17.8789 16.2539 18.167 16.2539C18.4552 16.2539 18.7404 16.2086 19.0066 16.1205C19.2727 16.0324 19.5145 15.9033 19.718 15.7406C19.9908 15.5236 20.187 15.253 20.2867 14.9562C20.3864 14.6593 20.3861 14.3467 20.2859 14.05L23.5955 11.4094C23.7169 11.3125 23.7169 11.1531 23.5955 11.0562L22.4871 10.1719V10.1719ZM17.2584 7H18.9817C19.154 7 19.295 6.8875 19.295 6.75V4.25C19.295 4.1125 19.154 4 18.9817 4H17.2584C17.086 4 16.945 4.1125 16.945 4.25V6.75C16.945 6.8875 17.086 7 17.2584 7ZM27.4417 13.8125V15.1875C27.4417 15.325 27.5827 15.4375 27.755 15.4375H30.8884C31.0607 15.4375 31.2017 15.325 31.2017 15.1875V13.8125C31.2017 13.675 31.0607 13.5625 30.8884 13.5625H27.755C27.5827 13.5625 27.4417 13.675 27.4417 13.8125ZM27.9391 7.65L26.721 6.67813C26.6621 6.6316 26.5826 6.6055 26.4997 6.6055C26.4169 6.6055 26.3373 6.6316 26.2784 6.67813L24.0616 8.44687C24.0033 8.49386 23.9706 8.55731 23.9706 8.62344C23.9706 8.68956 24.0033 8.75301 24.0616 8.8L25.2797 9.77188C25.4011 9.86875 25.6009 9.86875 25.7223 9.77188L27.9391 8.00313C28.0605 7.90625 28.0605 7.74687 27.9391 7.65ZM9.97728 6.67813C9.91839 6.6316 9.83886 6.6055 9.75599 6.6055C9.67311 6.6055 9.59359 6.6316 9.5347 6.67813L8.31661 7.65C8.2583 7.69699 8.22559 7.76044 8.22559 7.82656C8.22559 7.89269 8.2583 7.95614 8.31661 8.00313L10.5334 9.77188C10.6549 9.86875 10.8546 9.86875 10.976 9.77188L12.1941 8.8C12.3155 8.70313 12.3155 8.54375 12.1941 8.44687L9.97728 6.67813ZM8.32836 13.5625H5.19503C5.0227 13.5625 4.8817 13.675 4.8817 13.8125V15.1875C4.8817 15.325 5.0227 15.4375 5.19503 15.4375H8.32836C8.5007 15.4375 8.6417 15.325 8.6417 15.1875V13.8125C8.6417 13.675 8.5007 13.5625 8.32836 13.5625Z" fill="#41ADE3"/>
</svg>
