<svg width="46" height="32" viewBox="0 0 46 32" fill="none" xmlns="http://www.w3.org/2000/svg">
<g clip-path="url(#clip0_408_871)">
<path d="M15.8587 16C20.8431 16 24.8827 12.4187 24.8827 8C24.8827 3.58125 20.8431 0 15.8587 0C10.8744 0 6.83471 3.58125 6.83471 8C6.83471 12.4187 10.8744 16 15.8587 16ZM22.1755 18H20.9982C19.4331 18.6375 17.6917 19 15.8587 19C14.0257 19 12.2914 18.6375 10.7193 18H9.54191C4.31081 18 0.0667114 21.7625 0.0667114 26.4V29C0.0667114 30.6562 1.58246 32 3.45071 32H22.8312C22.662 31.575 22.5915 31.125 22.6479 30.6688L23.1273 26.8625L23.2119 26.1688L23.7688 25.675L29.2185 20.8438C27.4912 19.1125 24.9885 18 22.1755 18ZM25.3692 27.0812L24.8898 30.8937C24.8122 31.5312 25.4185 32.0687 26.1306 31.9937L30.424 31.5688L40.146 22.95L35.0911 18.4688L25.3692 27.0812ZM44.6932 16.8062L42.0213 14.4375C41.3656 13.8562 40.294 13.8562 39.6384 14.4375L36.9735 16.8L36.6844 17.0562L41.7463 21.5375L44.6932 18.925C45.3489 18.3375 45.3489 17.3937 44.6932 16.8062Z" fill="#41ADE3"/>
</g>
<defs>
<clipPath id="clip0_408_871">
<rect width="45.12" height="32" fill="white" transform="translate(0.0667114)"/>
</clipPath>
</defs>
</svg>
