<svg width="41" height="32" viewBox="0 0 41 32" fill="none" xmlns="http://www.w3.org/2000/svg">
<g clip-path="url(#clip0_408_862)">
<path d="M35.0821 14.2227H11.2075V16.0004H35.0821C35.3775 16.0004 35.6609 15.9068 35.8698 15.7401C36.0788 15.5734 36.1961 15.3473 36.1961 15.1115C36.1961 14.8758 36.0788 14.6497 35.8698 14.483C35.6609 14.3163 35.3775 14.2227 35.0821 14.2227Z" fill="#41ADE3"/>
<path d="M35.0821 21.334H11.2075V23.1118H35.0821C35.3775 23.1118 35.6609 23.0181 35.8698 22.8514C36.0788 22.6847 36.1961 22.4586 36.1961 22.2229C36.1961 21.9871 36.0788 21.761 35.8698 21.5943C35.6609 21.4276 35.3775 21.334 35.0821 21.334Z" fill="#41ADE3"/>
<path d="M17.2792 8.88911H35.1044C35.3998 8.88911 35.6832 8.79546 35.8921 8.62876C36.1011 8.46206 36.2184 8.23597 36.2184 8.00022C36.2184 7.76447 36.1011 7.53838 35.8921 7.37168C35.6832 7.20498 35.3998 7.11133 35.1044 7.11133H19.5073L17.2792 8.88911Z" fill="#41ADE3"/>
<path d="M19.563 3.03954C19.4501 2.94843 19.3156 2.8761 19.1674 2.82673C19.0192 2.77737 18.8602 2.75195 18.6996 2.75195C18.539 2.75195 18.38 2.77737 18.2318 2.82673C18.0836 2.8761 17.9491 2.94843 17.8362 3.03954L8.85678 10.204L5.09121 6.96842C4.8696 6.77865 4.56259 6.66688 4.2377 6.65771C3.91282 6.64854 3.59667 6.74272 3.35882 6.91954C3.12097 7.09635 2.98089 7.3413 2.96939 7.60052C2.9579 7.85974 3.07594 8.11198 3.29755 8.30176L8.80107 13.0129L19.563 4.44398C19.6809 4.35282 19.7747 4.24369 19.8387 4.12306C19.9028 4.00243 19.9358 3.87276 19.9358 3.74176C19.9358 3.61076 19.9028 3.48109 19.8387 3.36046C19.7747 3.23983 19.6809 3.13069 19.563 3.03954Z" fill="#41ADE3"/>
</g>
<defs>
<clipPath id="clip0_408_862">
<rect width="40.1067" height="32" fill="white" transform="translate(0.0667114)"/>
</clipPath>
</defs>
</svg>
